<svg width="182" height="225" viewBox="0 0 182 225" fill="none" xmlns="http://www.w3.org/2000/svg">
<rect x="5" y="5" width="172" height="215" rx="10" stroke="#0F9CE6" stroke-width="10"/>
<path d="M10 42L172 42" stroke="#0F9CE6" stroke-width="10"/>
<rect x="72" y="20" width="4" height="20" rx="2" fill="white" stroke="#0F9CE6" stroke-width="4"/>
<rect x="93.5" y="14.5" width="43" height="18" rx="2.5" stroke="#0F9CE6" stroke-width="5"/>
<circle cx="22" cy="19" r="4" fill="#0F9CE6"/>
<circle cx="48" cy="31" r="4" fill="#0F9CE6"/>
<circle cx="35" cy="31" r="4" fill="#0F9CE6"/>
<circle cx="22" cy="31" r="4" fill="#0F9CE6"/>
<circle cx="48" cy="19" r="4" fill="#0F9CE6"/>
<circle cx="35" cy="19" r="4" fill="#0F9CE6"/>
<circle cx="92" cy="137" r="65" stroke="#0F9CE6" stroke-width="10"/>
<circle cx="91" cy="136" r="45" stroke="#0F9CE6" stroke-width="10"/>
<rect x="91.9316" y="140.51" width="4" height="39.0275" rx="2" transform="rotate(40.5 91.9316 140.51)" stroke="#0F9CE6" stroke-width="4"/>
<rect x="72.892" y="143.507" width="4" height="26.2873" rx="2" transform="rotate(40.5 72.892 143.507)" stroke="#0F9CE6" stroke-width="4"/>
<rect x="105.346" y="127.572" width="4" height="6.96971" rx="2" transform="rotate(40.5 105.346 127.572)" stroke="#0F9CE6" stroke-width="4"/>
</svg>
