<svg width="231" height="41" viewBox="0 0 231 41" fill="none" xmlns="http://www.w3.org/2000/svg">
<path d="M217.944 7.05766L216.514 6.8781C216.396 6.51973 216.25 6.17413 216.081 5.84582L216.964 4.72263C217.321 4.2681 217.28 3.6265 216.871 3.23582L215.673 2.05254C215.274 1.64533 214.624 1.60476 214.163 1.95712L213.028 2.82937C212.695 2.66183 212.345 2.51834 211.982 2.40189L211.8 0.991708C211.732 0.425984 211.246 0 210.67 0H208.966C208.39 0 207.904 0.425984 207.836 0.989454L207.654 2.40189C207.29 2.51834 206.941 2.66108 206.608 2.82937L205.472 1.95712C205.012 1.60476 204.363 1.64533 203.967 2.04878L202.769 3.23132C202.356 3.6265 202.314 4.2681 202.672 4.72339L203.555 5.84582C203.385 6.17413 203.24 6.51973 203.122 6.8781L201.695 7.05766C201.122 7.12527 200.691 7.60535 200.691 8.17408V9.85698C200.691 10.4257 201.122 10.9058 201.692 10.9734L203.122 11.153C203.24 11.5113 203.385 11.8569 203.555 12.1852L202.672 13.3084C202.314 13.763 202.356 14.4046 202.765 14.7952L203.963 15.9785C204.363 16.385 205.012 16.4255 205.473 16.0732L206.609 15.2009C206.941 15.3692 207.291 15.5127 207.654 15.6284L207.836 17.0378C207.904 17.6051 208.39 18.0311 208.966 18.0311H210.67C211.246 18.0311 211.732 17.6051 211.8 17.0416L211.982 15.6292C212.345 15.5127 212.695 15.3692 213.027 15.2017L214.164 16.0739C214.624 16.427 215.274 16.3857 215.669 15.9823L216.867 14.799C217.28 14.4038 217.321 13.763 216.964 13.3077L216.081 12.1852C216.251 11.8569 216.397 11.5113 216.514 11.153L217.941 10.9734C218.513 10.9058 218.945 10.4257 218.945 9.85698V8.17408C218.945 7.60535 218.514 7.12527 217.944 7.05766ZM209.818 12.772C207.721 12.772 206.015 11.0868 206.015 9.01553C206.015 6.94421 207.721 5.25906 209.818 5.25906C211.915 5.25906 213.621 6.94421 213.621 9.01553C213.621 11.0868 211.915 12.772 209.818 12.772Z" fill="#0F9CE6"/>
<g clip-path="url(#clip0)">
<path d="M199.125 40.5698H197.693C196.535 40.5698 195.592 39.639 195.592 38.495V38.0164C195.1 37.861 194.621 37.6649 194.162 37.4299L193.818 37.7691C192.987 38.5915 191.655 38.5674 190.847 37.7688L189.835 36.769C189.027 35.971 189.003 34.6557 189.836 33.8344L190.179 33.4955C189.941 33.0415 189.742 32.569 189.585 32.0826H189.101C187.942 32.0826 187 31.1518 187 30.0077V28.5931C187 27.4491 187.942 26.5183 189.101 26.5183H189.585C189.742 26.0318 189.941 25.5593 190.179 25.1053L189.835 24.7662C189.004 23.9454 189.026 22.63 189.836 21.8316L190.848 20.8318C191.657 20.0313 192.989 20.0113 193.819 20.832L194.162 21.1709C194.621 20.936 195.1 20.7398 195.592 20.5844V20.1059C195.592 18.9618 196.535 18.031 197.693 18.031H199.125C200.283 18.031 201.225 18.9618 201.225 20.1059V20.5844C201.718 20.7398 202.196 20.936 202.656 21.1709L202.999 20.8318C203.831 20.0094 205.163 20.0335 205.97 20.8321L206.982 21.8318C207.791 22.6298 207.814 23.9452 206.982 24.7665L206.639 25.1053C206.877 25.5593 207.075 26.0318 207.233 26.5183H207.717C208.875 26.5183 209.818 27.4491 209.818 28.5931V30.0077C209.818 31.1518 208.875 32.0826 207.717 32.0826H207.233C207.075 32.569 206.877 33.0415 206.639 33.4955L206.982 33.8346C207.814 34.6555 207.791 35.9709 206.982 36.7693L205.97 37.7691C205.16 38.5696 203.829 38.5896 202.999 37.7689L202.656 37.43C202.196 37.6649 201.718 37.8611 201.225 38.0165V38.4951C201.225 39.639 200.283 40.5698 199.125 40.5698ZM194.385 36.0431C195.024 36.4161 195.711 36.6979 196.428 36.8806C196.723 36.9559 196.929 37.2189 196.929 37.52V38.495C196.929 38.9108 197.272 39.2492 197.693 39.2492H199.125C199.546 39.2492 199.888 38.9108 199.888 38.495V37.52C199.888 37.2189 200.095 36.9559 200.39 36.8806C201.107 36.6979 201.794 36.4161 202.432 36.0431C202.695 35.8897 203.029 35.9314 203.245 36.1446L203.944 36.8353C204.246 37.1334 204.73 37.1264 205.024 36.8356L206.037 35.8351C206.33 35.5457 206.34 35.0675 206.037 34.7687L205.338 34.0778C205.122 33.8647 205.08 33.5342 205.235 33.2748C205.613 32.6441 205.898 31.9653 206.083 31.2572C206.159 30.9656 206.425 30.762 206.73 30.762H207.717C208.138 30.762 208.481 30.4236 208.481 30.0077V28.5932C208.481 28.1773 208.138 27.839 207.717 27.839H206.73C206.425 27.839 206.159 27.6352 206.083 27.3437C205.898 26.6356 205.613 25.9568 205.235 25.3261C205.08 25.0667 205.122 24.7363 205.338 24.5231L206.037 23.8325C206.339 23.5343 206.331 23.0562 206.037 22.7661L205.024 21.7657C204.731 21.4753 204.247 21.4668 203.945 21.7654L203.245 22.4563C203.03 22.6695 202.695 22.7112 202.432 22.5578C201.794 22.1848 201.107 21.903 200.39 21.7203C200.095 21.6451 199.888 21.3821 199.888 21.0809V20.1059C199.888 19.69 199.546 19.3516 199.125 19.3516H197.693C197.272 19.3516 196.929 19.69 196.929 20.1059V21.0808C196.929 21.382 196.723 21.645 196.428 21.7202C195.711 21.9029 195.024 22.1847 194.385 22.5577C194.123 22.7111 193.788 22.6694 193.572 22.4562L192.873 21.7656C192.572 21.4675 192.088 21.4744 191.794 21.7653L190.781 22.7657C190.487 23.0551 190.478 23.5333 190.78 23.8321L191.48 24.523C191.696 24.7362 191.738 25.0666 191.583 25.3261C191.205 25.9567 190.92 26.6355 190.735 27.3436C190.659 27.6352 190.392 27.8389 190.088 27.8389H189.101C188.68 27.8389 188.337 28.1773 188.337 28.5931V30.0077C188.337 30.4236 188.68 30.7619 189.101 30.7619H190.088C190.392 30.7619 190.659 30.9656 190.735 31.2572C190.92 31.9653 191.205 32.6441 191.583 33.2747C191.738 33.5342 191.696 33.8646 191.48 34.0778L190.781 34.7684C190.478 35.0666 190.486 35.5447 190.78 35.8348L191.793 36.8352C192.087 37.1256 192.571 37.1341 192.873 36.8355L193.572 36.1446C193.731 35.9875 194.062 35.8543 194.385 36.0431Z" fill="#0F9CE6"/>
<path d="M198.409 34.2043C195.671 34.2043 193.444 32.0044 193.444 29.3003C193.444 26.5963 195.671 24.3964 198.409 24.3964C201.146 24.3964 203.373 26.5963 203.373 29.3003C203.373 32.0044 201.146 34.2043 198.409 34.2043ZM198.409 25.717C196.408 25.717 194.781 27.3245 194.781 29.3003C194.781 31.2762 196.408 32.8836 198.409 32.8836C200.409 32.8836 202.036 31.2762 202.036 29.3003C202.036 27.3245 200.409 25.717 198.409 25.717Z" fill="#0F9CE6"/>
</g>
<g clip-path="url(#clip1)">
<path d="M221.647 36.0621H220.501C219.575 36.0621 218.821 35.3174 218.821 34.4022V34.0193C218.427 33.895 218.044 33.7381 217.677 33.5501L217.402 33.8215C216.737 34.4794 215.671 34.4601 215.025 33.8212L214.215 33.0214C213.568 32.383 213.55 31.3307 214.216 30.6737L214.49 30.4026C214.3 30.0394 214.141 29.6614 214.015 29.2722H213.628C212.701 29.2722 211.947 28.5276 211.947 27.6124V26.4807C211.947 25.5655 212.701 24.8208 213.628 24.8208H214.015C214.141 24.4317 214.3 24.0537 214.49 23.6905L214.215 23.4192C213.55 22.7625 213.568 21.7102 214.216 21.0715L215.025 20.2716C215.673 19.6312 216.738 19.6152 217.402 20.2718L217.677 20.5429C218.044 20.355 218.427 20.198 218.821 20.0737V19.6909C218.821 18.7756 219.575 18.031 220.501 18.031H221.647C222.574 18.031 223.327 18.7756 223.327 19.6909V20.0737C223.721 20.198 224.104 20.355 224.472 20.5429L224.746 20.2716C225.412 19.6137 226.477 19.633 227.123 20.2719L227.933 21.0716C228.58 21.7101 228.599 22.7623 227.933 23.4194L227.658 23.6905C227.848 24.0537 228.007 24.4316 228.133 24.8208H228.521C229.447 24.8208 230.201 25.5655 230.201 26.4807V27.6124C230.201 28.5276 229.447 29.2722 228.521 29.2722H228.133C228.007 29.6614 227.848 30.0394 227.658 30.4026L227.933 30.6739C228.598 31.3306 228.58 32.3829 227.933 33.0216L227.123 33.8215C226.475 34.4619 225.41 34.4779 224.746 33.8213L224.472 33.5502C224.104 33.7381 223.721 33.8951 223.327 34.0194V34.4023C223.327 35.3174 222.574 36.0621 221.647 36.0621ZM217.855 32.4407C218.366 32.7391 218.916 32.9645 219.489 33.1107C219.725 33.1709 219.89 33.3813 219.89 33.6222V34.4022C219.89 34.7349 220.165 35.0056 220.501 35.0056H221.647C221.984 35.0056 222.258 34.7349 222.258 34.4022V33.6222C222.258 33.3813 222.423 33.1709 222.659 33.1107C223.232 32.9645 223.782 32.7391 224.293 32.4407C224.503 32.3179 224.771 32.3513 224.943 32.5219L225.503 33.0744C225.744 33.3129 226.131 33.3074 226.366 33.0746L227.177 32.2743C227.411 32.0428 227.419 31.6602 227.177 31.4212L226.617 30.8684C226.445 30.6979 226.411 30.4336 226.535 30.226C226.837 29.7215 227.065 29.1785 227.213 28.612C227.274 28.3787 227.487 28.2158 227.731 28.2158H228.521C228.858 28.2158 229.132 27.9451 229.132 27.6124V26.4807C229.132 26.148 228.858 25.8774 228.521 25.8774H227.731C227.487 25.8774 227.274 25.7144 227.213 25.4811C227.065 24.9147 226.837 24.3716 226.535 23.8671C226.411 23.6595 226.445 23.3952 226.617 23.2247L227.177 22.6722C227.418 22.4336 227.412 22.0512 227.177 21.819L226.367 21.0187C226.132 20.7864 225.744 20.7797 225.503 21.0185L224.943 21.5713C224.771 21.7418 224.503 21.7752 224.293 21.6524C223.782 21.354 223.232 21.1286 222.659 20.9824C222.423 20.9222 222.258 20.7119 222.258 20.4709V19.6909C222.258 19.3582 221.984 19.0875 221.647 19.0875H220.501C220.165 19.0875 219.891 19.3582 219.891 19.6909V20.4709C219.891 20.7118 219.726 20.9222 219.489 20.9824C218.916 21.1285 218.366 21.354 217.855 21.6524C217.645 21.7751 217.378 21.7417 217.205 21.5712L216.646 21.0187C216.405 20.7802 216.017 20.7857 215.782 21.0184L214.972 21.8188C214.737 22.0503 214.729 22.4328 214.972 22.6719L215.531 23.2246C215.704 23.3951 215.738 23.6595 215.613 23.867C215.311 24.3716 215.083 24.9146 214.935 25.4811C214.874 25.7143 214.661 25.8773 214.417 25.8773H213.628C213.291 25.8773 213.017 26.148 213.017 26.4807V27.6124C213.017 27.9451 213.291 28.2157 213.628 28.2157H214.417C214.661 28.2157 214.874 28.3787 214.935 28.612C215.083 29.1784 215.311 29.7215 215.613 30.226C215.737 30.4336 215.704 30.6979 215.531 30.8684L214.972 31.4209C214.73 31.6595 214.736 32.0419 214.972 32.2741L215.782 33.0744C216.017 33.3067 216.404 33.3135 216.645 33.0746L217.205 32.5218C217.332 32.3962 217.597 32.2896 217.855 32.4407Z" fill="#0F9CE6"/>
<path d="M221.074 30.9696C218.884 30.9696 217.102 29.2097 217.102 27.0465C217.102 24.8832 218.884 23.1233 221.074 23.1233C223.264 23.1233 225.046 24.8832 225.046 27.0465C225.046 29.2097 223.264 30.9696 221.074 30.9696ZM221.074 24.1798C219.474 24.1798 218.172 25.4658 218.172 27.0465C218.172 28.6271 219.474 29.9131 221.074 29.9131C222.674 29.9131 223.976 28.6271 223.976 27.0465C223.976 25.4658 222.674 24.1798 221.074 24.1798Z" fill="#0F9CE6"/>
</g>
<mask id="path-6-outside-1" maskUnits="userSpaceOnUse" x="0" y="17" width="184" height="21" fill="black">
<rect fill="white" y="17" width="184" height="21"/>
<path d="M6.01442 19.1157H1.85128C1.75022 19.1157 1.64915 19.1157 1.54809 19.1157C1.44702 19.1157 1.35373 19.0988 1.26821 19.0649C1.19047 19.0311 1.12439 18.9804 1.06997 18.9128C1.02332 18.8339 1 18.7269 1 18.5916C1 18.4226 1.02721 18.2986 1.08163 18.2198C1.13605 18.1409 1.20213 18.0845 1.27987 18.0507C1.36539 18.0169 1.45868 18 1.55975 18C1.66081 18 1.75799 18 1.85128 18H11.1688C11.2854 18 11.3942 18 11.4953 18C11.5964 18 11.6819 18.0169 11.7518 18.0507C11.8296 18.0845 11.8918 18.1409 11.9384 18.2198C11.9851 18.2986 12.0084 18.4113 12.0084 18.5578C12.0084 18.7156 11.9851 18.8339 11.9384 18.9128C11.8918 18.9804 11.8296 19.0311 11.7518 19.0649C11.6819 19.0988 11.5964 19.1157 11.4953 19.1157C11.3942 19.1157 11.2854 19.1157 11.1688 19.1157H7.00564V35.7153H11.1688C11.2854 35.7153 11.3942 35.7153 11.4953 35.7153C11.5964 35.7153 11.6819 35.7322 11.7518 35.766C11.8296 35.7998 11.8918 35.8562 11.9384 35.9351C11.9851 36.0139 12.0084 36.1266 12.0084 36.2731C12.0084 36.4309 11.9851 36.5492 11.9384 36.6281C11.8918 36.6957 11.8296 36.7464 11.7518 36.7802C11.6819 36.8141 11.5964 36.831 11.4953 36.831C11.3942 36.831 11.2854 36.831 11.1688 36.831H1.85128C1.75799 36.831 1.66081 36.831 1.55975 36.831C1.45868 36.831 1.36539 36.8141 1.27987 36.7802C1.20213 36.7464 1.13605 36.6901 1.08163 36.6112C1.02721 36.5323 1 36.4084 1 36.2393C1 36.1041 1.02332 36.0027 1.06997 35.9351C1.12439 35.8562 1.19047 35.7998 1.26821 35.766C1.35373 35.7322 1.44702 35.7153 1.54809 35.7153C1.64915 35.7153 1.75022 35.7153 1.85128 35.7153H6.01442V19.1157Z"/>
<path d="M18.9703 37C17.8974 37 16.9917 36.8479 16.2532 36.5436C15.5146 36.2281 14.916 35.7829 14.4573 35.2082C14.0064 34.6335 13.6799 33.9348 13.4777 33.1121C13.2756 32.2894 13.1745 31.3597 13.1745 30.323C13.1745 29.1284 13.2873 28.1085 13.5127 27.2633C13.7459 26.4069 14.0997 25.7026 14.5739 25.1504C15.0559 24.5982 15.6584 24.1925 16.3814 23.9333C17.1122 23.6741 17.9752 23.5445 18.9703 23.5445C19.9654 23.5445 20.8244 23.6741 21.5474 23.9333C22.2782 24.1925 22.8807 24.5982 23.355 25.1504C23.837 25.7026 24.1907 26.4069 24.4162 27.2633C24.6494 28.1085 24.766 29.1284 24.766 30.323C24.766 31.3597 24.6649 32.2894 24.4628 33.1121C24.2607 33.9348 23.9303 34.6335 23.4716 35.2082C23.0207 35.7829 22.4259 36.2281 21.6874 36.5436C20.9488 36.8479 20.0431 37 18.9703 37ZM18.9703 36.0027C19.6777 36.0027 20.288 35.9294 20.8011 35.7829C21.3142 35.6251 21.7496 35.411 22.1072 35.1406C22.4726 34.8701 22.7641 34.5546 22.9818 34.194C23.2073 33.8333 23.3822 33.4445 23.5066 33.0276C23.6387 32.5993 23.7242 32.1598 23.7631 31.7091C23.8098 31.247 23.8331 30.785 23.8331 30.323C23.8331 29.2749 23.7398 28.3846 23.5532 27.6521C23.3666 26.9196 23.0751 26.3224 22.6786 25.8603C22.2821 25.3983 21.7768 25.0658 21.1626 24.863C20.5485 24.6489 19.8177 24.5418 18.9703 24.5418C18.1151 24.5418 17.3804 24.6489 16.7663 24.863C16.1599 25.0658 15.6584 25.3983 15.2619 25.8603C14.8654 26.3224 14.5739 26.9196 14.3873 27.6521C14.2007 28.3846 14.1075 29.2749 14.1075 30.323C14.1075 30.785 14.1269 31.247 14.1658 31.7091C14.2124 32.1598 14.2979 32.5993 14.4223 33.0276C14.5545 33.4445 14.7294 33.8333 14.9471 34.194C15.1725 34.5546 15.4641 34.8701 15.8217 35.1406C16.1871 35.411 16.6263 35.6251 17.1394 35.7829C17.6525 35.9294 18.2628 36.0027 18.9703 36.0027Z"/>
<path d="M37.0572 18.6254C37.0572 18.8508 37.0027 18.9917 36.8939 19.048C36.7851 19.0931 36.6451 19.1157 36.4741 19.1157H29.9553V35.5801C29.9553 35.7491 29.9515 35.9069 29.9437 36.0534C29.9359 36.1999 29.9126 36.3351 29.8737 36.4591C29.8426 36.5718 29.796 36.6619 29.7338 36.7295C29.6716 36.7972 29.5822 36.831 29.4656 36.831C29.2634 36.831 29.1274 36.707 29.0574 36.4591C28.9952 36.1999 28.9641 35.9069 28.9641 35.5801V19.1157H22.4337C22.2627 19.1157 22.115 19.0931 21.9906 19.048C21.874 18.9917 21.8157 18.8508 21.8157 18.6254C21.8157 18.4564 21.8429 18.3324 21.8973 18.2536C21.9517 18.1634 22.0178 18.1014 22.0955 18.0676C22.1811 18.0338 22.2743 18.0169 22.3754 18.0169C22.4842 18.0056 22.5853 18 22.6786 18H36.2175C36.3341 18 36.443 18.0056 36.5441 18.0169C36.6451 18.0169 36.7306 18.0338 36.8006 18.0676C36.8783 18.1014 36.9405 18.1634 36.9872 18.2536C37.0338 18.3324 37.0572 18.4564 37.0572 18.6254Z"/>
<path d="M60.6832 27.3817C60.6832 29.1848 60.52 30.6892 60.1934 31.895C59.8669 33.1008 59.381 34.07 58.7358 34.8025C58.0905 35.535 57.2859 36.059 56.3218 36.3746C55.3656 36.6788 54.2539 36.831 52.9867 36.831H44.9636C44.847 36.831 44.7576 36.831 44.6954 36.831C44.641 36.8197 44.5982 36.7972 44.5671 36.7633C44.536 36.7183 44.5166 36.6563 44.5088 36.5774C44.5088 36.4985 44.5088 36.3858 44.5088 36.2393V18.6254C44.5088 18.4564 44.5088 18.3324 44.5088 18.2536C44.5166 18.1634 44.536 18.1014 44.5671 18.0676C44.5982 18.0338 44.6449 18.0169 44.7071 18.0169C44.777 18.0056 44.8703 18 44.9869 18H52.9867C54.2539 18 55.3656 18.1578 56.3218 18.4733C57.2859 18.7888 58.0905 19.3185 58.7358 20.0623C59.381 20.7948 59.8669 21.7583 60.1934 22.9528C60.52 24.1474 60.6832 25.6237 60.6832 27.3817ZM59.692 27.3817C59.692 25.9279 59.5793 24.6827 59.3538 23.6459C59.1284 22.5979 58.7552 21.7414 58.2343 21.0765C57.7134 20.4004 57.0254 19.9045 56.1702 19.589C55.3151 19.2734 54.2539 19.1157 52.9867 19.1157H45.5V35.7153H52.9867C54.2539 35.7153 55.3151 35.5575 56.1702 35.242C57.0254 34.9265 57.7134 34.4362 58.2343 33.7714C58.7552 33.0952 59.1284 32.2331 59.3538 31.1851C59.5793 30.1257 59.692 28.8579 59.692 27.3817Z"/>
<path d="M64.6131 33.0445C64.6131 33.5854 64.7064 34.0418 64.893 34.4137C65.0874 34.7856 65.3556 35.0899 65.6976 35.3265C66.0397 35.5632 66.444 35.7378 66.9104 35.8505C67.3847 35.952 67.9016 36.0027 68.4614 36.0027C69.1455 36.0027 69.7519 35.9351 70.2806 35.7998C70.8092 35.6533 71.2718 35.473 71.6683 35.2589C72.0648 35.0448 72.3991 34.8138 72.6712 34.5658C72.9433 34.3066 73.1687 34.0587 73.3475 33.8221V30.4244C72.5701 30.2666 71.7655 30.1201 70.9336 29.9849C70.1018 29.8384 69.2621 29.7651 68.4148 29.7651C67.8161 29.7651 67.2797 29.8158 66.8055 29.9173C66.339 30.0187 65.9425 30.1934 65.616 30.4413C65.2895 30.6892 65.0407 31.0273 64.8697 31.4555C64.6986 31.8725 64.6131 32.4021 64.6131 33.0445ZM69.5692 24.5418C68.8229 24.5418 68.1854 24.57 67.6568 24.6263C67.1281 24.6827 66.6733 24.7559 66.2924 24.8461C65.9192 24.9362 65.6043 25.032 65.3478 25.1335C65.0912 25.2349 64.8658 25.3363 64.6714 25.4377C64.5781 25.4377 64.4926 25.3701 64.4149 25.2349C64.3371 25.0996 64.2983 24.9531 64.2983 24.7954C64.2983 24.6489 64.3449 24.5418 64.4382 24.4742C64.5004 24.4291 64.6442 24.3559 64.8697 24.2544C65.1029 24.153 65.4255 24.0516 65.8376 23.9502C66.2574 23.8375 66.7744 23.7417 67.3885 23.6628C68.0105 23.5839 68.7413 23.5445 69.5809 23.5445C69.9774 23.5445 70.37 23.5839 70.7587 23.6628C71.1474 23.7304 71.5128 23.86 71.8549 24.0516C72.2047 24.2432 72.5273 24.508 72.8228 24.8461C73.126 25.1842 73.3825 25.6237 73.5924 26.1646C73.8101 26.6942 73.9811 27.3422 74.1055 28.1085C74.2299 28.8636 74.2921 29.7539 74.2921 30.7794V35.6477C74.2921 35.7829 74.2882 35.9181 74.2805 36.0534C74.2727 36.1886 74.2494 36.3182 74.2105 36.4422C74.1794 36.5549 74.1327 36.6507 74.0705 36.7295C74.0084 36.7972 73.9228 36.831 73.814 36.831C73.6352 36.831 73.5108 36.7126 73.4408 36.476C73.3786 36.2393 73.3475 35.9407 73.3475 35.5801V34.4137C73.1921 34.6954 72.9899 34.9884 72.7411 35.2927C72.4924 35.597 72.1775 35.8787 71.7966 36.1379C71.4156 36.3858 70.9608 36.5943 70.4322 36.7633C69.9035 36.9211 69.2777 37 68.5547 37C67.8783 37 67.2408 36.9268 66.6422 36.7802C66.0514 36.6337 65.5344 36.4027 65.0912 36.0872C64.6559 35.7716 64.3099 35.366 64.0534 34.8701C63.8046 34.363 63.6802 33.7544 63.6802 33.0445C63.6802 32.2218 63.7968 31.54 64.0301 30.9991C64.2711 30.4469 64.6015 30.0074 65.0213 29.6806C65.4411 29.3425 65.9309 29.1059 66.4906 28.9706C67.0581 28.8354 67.6684 28.7678 68.3215 28.7678C68.8112 28.7678 69.301 28.796 69.7908 28.8523C70.2884 28.8974 70.7587 28.9706 71.2018 29.0721C71.645 29.1622 72.0492 29.2805 72.4146 29.427C72.7878 29.5623 73.0988 29.7257 73.3475 29.9173C73.3475 28.7678 73.2426 27.8437 73.0327 27.145C72.8228 26.4463 72.5429 25.9054 72.1931 25.5222C71.8432 25.1278 71.4389 24.8686 70.9803 24.7447C70.5294 24.6094 70.059 24.5418 69.5692 24.5418Z"/>
<path d="M87.5861 33.298C87.5861 32.7008 87.4384 32.2387 87.143 31.9119C86.8554 31.5851 86.4705 31.3485 85.9885 31.202C85.5143 31.0442 84.9701 30.9484 84.3559 30.9146C83.7495 30.8695 83.1276 30.8357 82.4901 30.8132C81.8604 30.7794 81.2384 30.7286 80.6243 30.661C80.0179 30.5821 79.4737 30.43 78.9917 30.2046C78.5174 29.968 78.1326 29.6355 77.8372 29.2073C77.5495 28.7678 77.4057 28.1705 77.4057 27.4155C77.4057 26.6379 77.5495 26.0012 77.8372 25.5053C78.1326 25.0095 78.5174 24.6151 78.9917 24.3221C79.4659 24.0291 80.0023 23.8262 80.6009 23.7135C81.1996 23.6008 81.8099 23.5445 82.4318 23.5445C83.4502 23.5445 84.3987 23.6684 85.2772 23.9164C86.1557 24.153 86.972 24.5587 87.7261 25.1335C87.8038 25.1898 87.8544 25.263 87.8777 25.3532C87.9088 25.4321 87.9282 25.5166 87.936 25.6068C87.936 25.7533 87.9049 25.8829 87.8427 25.9956C87.7805 26.1082 87.7105 26.1646 87.6328 26.1646C87.5861 26.1646 87.5551 26.1533 87.5395 26.1308C86.8787 25.6462 86.1285 25.263 85.2888 24.9813C84.457 24.6883 83.5202 24.5418 82.4784 24.5418C81.9498 24.5418 81.4367 24.5925 80.9391 24.694C80.4416 24.7841 79.9984 24.9419 79.6097 25.1673C79.2288 25.3814 78.9217 25.6744 78.6885 26.0463C78.4552 26.4069 78.3386 26.8633 78.3386 27.4155C78.3386 27.9789 78.4825 28.4128 78.7701 28.7171C79.0655 29.0214 79.4504 29.2467 79.9246 29.3932C80.4066 29.5285 80.9508 29.613 81.5572 29.6468C82.1714 29.6806 82.7933 29.7144 83.423 29.7482C84.0605 29.782 84.6825 29.844 85.2888 29.9342C85.903 30.013 86.4472 30.1765 86.9214 30.4244C87.4035 30.661 87.7883 31.0104 88.0759 31.4724C88.3714 31.9232 88.5191 32.5317 88.5191 33.298C88.5191 33.9855 88.3714 34.5658 88.0759 35.0391C87.7805 35.5125 87.3879 35.8956 86.8981 36.1886C86.4083 36.4703 85.8408 36.6788 85.1956 36.8141C84.5581 36.938 83.8972 37 83.2131 37C82.7933 37 82.3385 36.9831 81.8487 36.9493C81.3667 36.9268 80.8808 36.8648 80.391 36.7633C79.909 36.6507 79.4426 36.4872 78.9917 36.2731C78.5485 36.0477 78.1598 35.7435 77.8255 35.3603C77.7167 35.2364 77.6623 35.0899 77.6623 34.9208C77.6623 34.7743 77.6895 34.6504 77.7439 34.5489C77.8061 34.4362 77.8799 34.3799 77.9655 34.3799C78.0277 34.3799 78.0743 34.4024 78.1054 34.4475C78.4319 34.7743 78.7818 35.0391 79.1549 35.242C79.5359 35.4448 79.9362 35.6026 80.3561 35.7153C80.7759 35.828 81.2151 35.9069 81.6738 35.952C82.1325 35.9858 82.6067 36.0027 83.0965 36.0027C83.6796 36.0027 84.2393 35.9632 84.7757 35.8843C85.3199 35.7942 85.7981 35.6477 86.2101 35.4448C86.6299 35.2307 86.9642 34.9546 87.213 34.6165C87.4618 34.2672 87.5861 33.8277 87.5861 33.298Z"/>
<path d="M102.058 35.6139C102.058 35.7604 102.05 35.9069 102.035 36.0534C102.027 36.1999 102.007 36.3295 101.976 36.4422C101.945 36.5549 101.899 36.6507 101.836 36.7295C101.782 36.7972 101.708 36.831 101.615 36.831C101.498 36.831 101.409 36.7972 101.347 36.7295C101.284 36.6507 101.234 36.5549 101.195 36.4422C101.164 36.3295 101.145 36.1999 101.137 36.0534C101.129 35.9069 101.125 35.7604 101.125 35.6139V29.7651C101.125 28.8861 101.078 28.1198 100.985 27.4662C100.892 26.8126 100.713 26.2716 100.449 25.8434C100.192 25.4039 99.8307 25.0771 99.3642 24.863C98.8977 24.6489 98.2913 24.5418 97.545 24.5418C97.0941 24.5418 96.6082 24.5982 96.0873 24.7109C95.5665 24.8123 95.0689 24.9982 94.5947 25.2687C94.1282 25.5279 93.7123 25.8772 93.3469 26.3167C92.9815 26.7562 92.7288 27.3084 92.5889 27.9733V35.6139C92.5889 35.7604 92.5811 35.9069 92.5656 36.0534C92.5578 36.1999 92.5384 36.3295 92.5073 36.4422C92.4762 36.5549 92.4295 36.6507 92.3673 36.7295C92.3129 36.7972 92.2391 36.831 92.1458 36.831C92.0369 36.831 91.9475 36.7972 91.8776 36.7295C91.8154 36.6507 91.7648 36.5549 91.726 36.4422C91.6949 36.3295 91.6754 36.1999 91.6677 36.0534C91.6599 35.9069 91.656 35.7604 91.656 35.6139V19.1833C91.656 19.048 91.6599 18.9128 91.6677 18.7776C91.6754 18.6311 91.6949 18.5015 91.726 18.3888C91.7648 18.2761 91.8154 18.1859 91.8776 18.1183C91.9475 18.0394 92.0369 18 92.1458 18C92.2391 18 92.3129 18.0338 92.3673 18.1014C92.4295 18.169 92.4762 18.2592 92.5073 18.3719C92.5384 18.4846 92.5578 18.6142 92.5656 18.7607C92.5811 18.8959 92.5889 19.0368 92.5889 19.1833V26.79C92.6744 26.3393 92.8182 25.9448 93.0204 25.6068C93.2303 25.2687 93.4713 24.9813 93.7434 24.7447C94.0233 24.4967 94.3303 24.2995 94.6646 24.153C94.9989 23.9953 95.3332 23.8713 95.6675 23.7811C96.0096 23.691 96.34 23.629 96.6587 23.5952C96.9853 23.5614 97.2807 23.5445 97.545 23.5445C98.3846 23.5445 99.0921 23.6515 99.6674 23.8657C100.243 24.0685 100.705 24.4122 101.055 24.8968C101.413 25.3814 101.669 26.0237 101.825 26.8238C101.98 27.6127 102.058 28.5931 102.058 29.7651V35.6139Z"/>
<path d="M111.807 23.5445C112.507 23.5445 113.167 23.6515 113.789 23.8657C114.419 24.0685 114.967 24.4235 115.434 24.9306C115.908 25.4377 116.281 26.1139 116.553 26.9591C116.833 27.8043 116.973 28.8636 116.973 30.137C116.973 31.3992 116.856 32.4698 116.623 33.3488C116.398 34.2165 116.063 34.9208 115.62 35.4617C115.185 36.0027 114.645 36.3971 113.999 36.645C113.362 36.8817 112.631 37 111.807 37C111.177 37 110.598 36.9437 110.069 36.831C109.541 36.7183 109.059 36.5774 108.623 36.4084C108.196 36.2281 107.811 36.0308 107.469 35.8167C107.127 35.6026 106.824 35.3941 106.559 35.1913V35.597C106.559 35.766 106.555 35.9238 106.548 36.0703C106.54 36.2168 106.52 36.3464 106.489 36.4591C106.458 36.5718 106.412 36.6619 106.349 36.7295C106.287 36.7972 106.198 36.831 106.081 36.831C105.965 36.831 105.875 36.7972 105.813 36.7295C105.759 36.6619 105.716 36.5718 105.685 36.4591C105.654 36.3464 105.634 36.2168 105.626 36.0703C105.626 35.9238 105.626 35.766 105.626 35.597V18.8283C105.626 18.4677 105.677 18.2423 105.778 18.1521C105.887 18.0507 106 18 106.116 18C106.233 18 106.334 18.0507 106.419 18.1521C106.513 18.2423 106.559 18.4677 106.559 18.8283V26.9084C106.645 26.4351 106.796 26.0237 107.014 25.6744C107.232 25.3138 107.488 25.0095 107.784 24.7616C108.087 24.5136 108.417 24.3108 108.775 24.153C109.133 23.9953 109.49 23.8713 109.848 23.7811C110.213 23.691 110.563 23.629 110.897 23.5952C111.239 23.5614 111.543 23.5445 111.807 23.5445ZM111.807 24.5418C111.34 24.5531 110.831 24.6094 110.279 24.7109C109.727 24.801 109.199 24.97 108.693 25.218C108.188 25.4659 107.741 25.8096 107.352 26.2491C106.964 26.6886 106.699 27.2633 106.559 27.9733V34.4644C106.894 34.6447 107.251 34.8307 107.632 35.0222C108.021 35.2026 108.433 35.366 108.868 35.5125C109.304 35.659 109.766 35.7773 110.256 35.8674C110.746 35.9576 111.263 36.0027 111.807 36.0027C112.553 36.0027 113.191 35.89 113.719 35.6646C114.256 35.4392 114.695 35.0899 115.037 34.6165C115.387 34.132 115.64 33.5234 115.795 32.7909C115.958 32.0472 116.04 31.1625 116.04 30.137C116.04 29.0777 115.927 28.1874 115.702 27.4662C115.484 26.745 115.185 26.1702 114.804 25.742C114.423 25.3138 113.972 25.0095 113.451 24.8292C112.938 24.6376 112.39 24.5418 111.807 24.5418Z"/>
<path d="M125.649 37C124.576 37 123.671 36.8479 122.932 36.5436C122.193 36.2281 121.595 35.7829 121.136 35.2082C120.685 34.6335 120.359 33.9348 120.157 33.1121C119.954 32.2894 119.853 31.3597 119.853 30.323C119.853 29.1284 119.966 28.1085 120.192 27.2633C120.425 26.4069 120.778 25.7026 121.253 25.1504C121.735 24.5982 122.337 24.1925 123.06 23.9333C123.791 23.6741 124.654 23.5445 125.649 23.5445C126.644 23.5445 127.503 23.6741 128.226 23.9333C128.957 24.1925 129.56 24.5982 130.034 25.1504C130.516 25.7026 130.87 26.4069 131.095 27.2633C131.328 28.1085 131.445 29.1284 131.445 30.323C131.445 31.3597 131.344 32.2894 131.142 33.1121C130.939 33.9348 130.609 34.6335 130.15 35.2082C129.699 35.7829 129.105 36.2281 128.366 36.5436C127.628 36.8479 126.722 37 125.649 37ZM125.649 36.0027C126.357 36.0027 126.967 35.9294 127.48 35.7829C127.993 35.6251 128.428 35.411 128.786 35.1406C129.151 34.8701 129.443 34.5546 129.661 34.194C129.886 33.8333 130.061 33.4445 130.185 33.0276C130.318 32.5993 130.403 32.1598 130.442 31.7091C130.489 31.247 130.512 30.785 130.512 30.323C130.512 29.2749 130.419 28.3846 130.232 27.6521C130.045 26.9196 129.754 26.3224 129.357 25.8603C128.961 25.3983 128.456 25.0658 127.841 24.863C127.227 24.6489 126.496 24.5418 125.649 24.5418C124.794 24.5418 124.059 24.6489 123.445 24.863C122.839 25.0658 122.337 25.3983 121.941 25.8603C121.544 26.3224 121.253 26.9196 121.066 27.6521C120.88 28.3846 120.786 29.2749 120.786 30.323C120.786 30.785 120.806 31.247 120.845 31.7091C120.891 32.1598 120.977 32.5993 121.101 33.0276C121.233 33.4445 121.408 33.8333 121.626 34.194C121.851 34.5546 122.143 34.8701 122.5 35.1406C122.866 35.411 123.305 35.6251 123.818 35.7829C124.331 35.9294 124.942 36.0027 125.649 36.0027Z"/>
<path d="M135.375 33.0445C135.375 33.5854 135.468 34.0418 135.655 34.4137C135.849 34.7856 136.117 35.0899 136.459 35.3265C136.801 35.5632 137.206 35.7378 137.672 35.8505C138.146 35.952 138.663 36.0027 139.223 36.0027C139.907 36.0027 140.514 35.9351 141.042 35.7998C141.571 35.6533 142.033 35.473 142.43 35.2589C142.826 35.0448 143.161 34.8138 143.433 34.5658C143.705 34.3066 143.93 34.0587 144.109 33.8221V30.4244C143.332 30.2666 142.527 30.1201 141.695 29.9849C140.863 29.8384 140.024 29.7651 139.176 29.7651C138.578 29.7651 138.041 29.8158 137.567 29.9173C137.101 30.0187 136.704 30.1934 136.378 30.4413C136.051 30.6892 135.802 31.0273 135.631 31.4555C135.46 31.8725 135.375 32.4021 135.375 33.0445ZM140.331 24.5418C139.584 24.5418 138.947 24.57 138.418 24.6263C137.89 24.6827 137.435 24.7559 137.054 24.8461C136.681 24.9362 136.366 25.032 136.109 25.1335C135.853 25.2349 135.627 25.3363 135.433 25.4377C135.34 25.4377 135.254 25.3701 135.176 25.2349C135.099 25.0996 135.06 24.9531 135.06 24.7954C135.06 24.6489 135.106 24.5418 135.2 24.4742C135.262 24.4291 135.406 24.3559 135.631 24.2544C135.864 24.153 136.187 24.0516 136.599 23.9502C137.019 23.8375 137.536 23.7417 138.15 23.6628C138.772 23.5839 139.503 23.5445 140.342 23.5445C140.739 23.5445 141.132 23.5839 141.52 23.6628C141.909 23.7304 142.274 23.86 142.616 24.0516C142.966 24.2432 143.289 24.508 143.584 24.8461C143.888 25.1842 144.144 25.6237 144.354 26.1646C144.572 26.6942 144.743 27.3422 144.867 28.1085C144.992 28.8636 145.054 29.7539 145.054 30.7794V35.6477C145.054 35.7829 145.05 35.9181 145.042 36.0534C145.034 36.1886 145.011 36.3182 144.972 36.4422C144.941 36.5549 144.894 36.6507 144.832 36.7295C144.77 36.7972 144.684 36.831 144.576 36.831C144.397 36.831 144.272 36.7126 144.202 36.476C144.14 36.2393 144.109 35.9407 144.109 35.5801V34.4137C143.954 34.6954 143.752 34.9884 143.503 35.2927C143.254 35.597 142.939 35.8787 142.558 36.1379C142.177 36.3858 141.722 36.5943 141.194 36.7633C140.665 36.9211 140.039 37 139.316 37C138.64 37 138.002 36.9268 137.404 36.7802C136.813 36.6337 136.296 36.4027 135.853 36.0872C135.417 35.7716 135.072 35.366 134.815 34.8701C134.566 34.363 134.442 33.7544 134.442 33.0445C134.442 32.2218 134.558 31.54 134.792 30.9991C135.033 30.4469 135.363 30.0074 135.783 29.6806C136.203 29.3425 136.692 29.1059 137.252 28.9706C137.82 28.8354 138.43 28.7678 139.083 28.7678C139.573 28.7678 140.063 28.796 140.552 28.8523C141.05 28.8974 141.52 28.9706 141.963 29.0721C142.407 29.1622 142.811 29.2805 143.176 29.427C143.549 29.5623 143.86 29.7257 144.109 29.9173C144.109 28.7678 144.004 27.8437 143.794 27.145C143.584 26.4463 143.304 25.9054 142.955 25.5222C142.605 25.1278 142.201 24.8686 141.742 24.7447C141.291 24.6094 140.821 24.5418 140.331 24.5418Z"/>
<path d="M155.502 23.9502C155.588 23.984 155.65 24.0516 155.689 24.153C155.728 24.2432 155.747 24.3446 155.747 24.4573C155.747 24.6038 155.712 24.739 155.642 24.863C155.58 24.987 155.483 25.0489 155.351 25.0489C155.312 25.0489 155.289 25.0489 155.281 25.0489C155.273 25.0377 155.25 25.0264 155.211 25.0151C154.908 24.8912 154.616 24.7954 154.336 24.7278C154.064 24.6601 153.765 24.6263 153.438 24.6263C152.98 24.6263 152.54 24.694 152.121 24.8292C151.708 24.9531 151.331 25.1504 150.989 25.4208C150.655 25.68 150.364 26.0181 150.115 26.4351C149.866 26.8407 149.679 27.3197 149.555 27.8719V35.6477C149.555 35.9407 149.528 36.2112 149.473 36.4591C149.419 36.707 149.295 36.831 149.1 36.831C148.991 36.831 148.902 36.7972 148.832 36.7295C148.77 36.6619 148.723 36.5718 148.692 36.4591C148.661 36.3464 148.642 36.2224 148.634 36.0872C148.626 35.9407 148.622 35.7942 148.622 35.6477V24.8292C148.622 24.57 148.653 24.3502 148.715 24.1699C148.778 23.9784 148.921 23.8826 149.147 23.8826C149.318 23.8826 149.427 23.9727 149.473 24.153C149.528 24.3333 149.555 24.5587 149.555 24.8292V26.79C149.679 26.1026 149.893 25.5448 150.196 25.1165C150.507 24.6883 150.849 24.3615 151.223 24.1361C151.604 23.8995 151.992 23.7417 152.389 23.6628C152.785 23.5839 153.135 23.5445 153.438 23.5445C153.734 23.5445 153.986 23.5614 154.196 23.5952C154.414 23.6177 154.601 23.6515 154.756 23.6966C154.911 23.7304 155.048 23.7699 155.164 23.8149C155.281 23.86 155.394 23.9051 155.502 23.9502Z"/>
<path d="M162.453 37C161.753 37 161.088 36.8986 160.458 36.6957C159.837 36.4816 159.288 36.121 158.814 35.6139C158.348 35.1068 157.975 34.4306 157.695 33.5854C157.423 32.7402 157.287 31.6809 157.287 30.4075C157.287 29.1453 157.399 28.0804 157.625 27.2126C157.858 26.3336 158.192 25.6237 158.628 25.0827C159.071 24.5418 159.611 24.153 160.249 23.9164C160.894 23.6684 161.628 23.5445 162.453 23.5445C163.277 23.5445 163.984 23.6177 164.575 23.7642C165.166 23.8995 165.663 24.0741 166.068 24.2883C166.48 24.5024 166.814 24.739 167.07 24.9982C167.335 25.2461 167.545 25.4772 167.7 25.6913V19.2002C167.7 19.0537 167.7 18.9072 167.7 18.7607C167.708 18.6142 167.727 18.4846 167.759 18.3719C167.79 18.2592 167.832 18.169 167.887 18.1014C167.949 18.0338 168.038 18 168.155 18C168.272 18 168.361 18.0338 168.423 18.1014C168.485 18.1578 168.532 18.2367 168.563 18.3381C168.594 18.4395 168.614 18.5635 168.621 18.71C168.629 18.8452 168.633 18.9973 168.633 19.1664V35.9181C168.633 36.2788 168.583 36.5211 168.482 36.645C168.388 36.769 168.287 36.831 168.178 36.831C168.046 36.831 167.933 36.7746 167.84 36.6619C167.747 36.5492 167.7 36.3126 167.7 35.952V33.6023C167.615 34.0869 167.463 34.5095 167.245 34.8701C167.028 35.2195 166.767 35.5181 166.464 35.766C166.169 36.0139 165.842 36.2224 165.485 36.3915C165.127 36.5492 164.765 36.6732 164.4 36.7633C164.042 36.8535 163.693 36.9155 163.35 36.9493C163.016 36.9831 162.717 37 162.453 37ZM162.453 36.0027C162.919 35.9914 163.428 35.9407 163.98 35.8505C164.532 35.7491 165.061 35.5744 165.566 35.3265C166.071 35.0786 166.519 34.7349 166.907 34.2954C167.296 33.8559 167.56 33.2811 167.7 32.5712V26.4858C167.521 26.2829 167.292 26.0688 167.012 25.8434C166.74 25.618 166.394 25.4095 165.974 25.218C165.562 25.0151 165.065 24.8517 164.482 24.7278C163.906 24.6038 163.23 24.5418 162.453 24.5418C161.706 24.5418 161.065 24.6545 160.528 24.8799C160 25.1053 159.561 25.4603 159.211 25.9448C158.869 26.4181 158.616 27.0267 158.453 27.7705C158.297 28.503 158.219 29.382 158.219 30.4075C158.219 31.4781 158.328 32.374 158.546 33.0952C158.771 33.8052 159.075 34.3743 159.456 34.8025C159.837 35.2307 160.284 35.5406 160.797 35.7322C161.318 35.9125 161.869 36.0027 162.453 36.0027Z"/>
<path d="M182.067 33.298C182.067 32.7008 181.919 32.2387 181.624 31.9119C181.336 31.5851 180.951 31.3485 180.469 31.202C179.995 31.0442 179.451 30.9484 178.837 30.9146C178.23 30.8695 177.609 30.8357 176.971 30.8132C176.341 30.7794 175.719 30.7286 175.105 30.661C174.499 30.5821 173.955 30.43 173.473 30.2046C172.998 29.968 172.614 29.6355 172.318 29.2073C172.03 28.7678 171.887 28.1705 171.887 27.4155C171.887 26.6379 172.03 26.0012 172.318 25.5053C172.614 25.0095 172.998 24.6151 173.473 24.3221C173.947 24.0291 174.483 23.8262 175.082 23.7135C175.681 23.6008 176.291 23.5445 176.913 23.5445C177.931 23.5445 178.88 23.6684 179.758 23.9164C180.637 24.153 181.453 24.5587 182.207 25.1335C182.285 25.1898 182.335 25.263 182.359 25.3532C182.39 25.4321 182.409 25.5166 182.417 25.6068C182.417 25.7533 182.386 25.8829 182.324 25.9956C182.261 26.1082 182.191 26.1646 182.114 26.1646C182.067 26.1646 182.036 26.1533 182.02 26.1308C181.36 25.6462 180.609 25.263 179.77 24.9813C178.938 24.6883 178.001 24.5418 176.959 24.5418C176.431 24.5418 175.918 24.5925 175.42 24.694C174.923 24.7841 174.479 24.9419 174.091 25.1673C173.71 25.3814 173.403 25.6744 173.169 26.0463C172.936 26.4069 172.82 26.8633 172.82 27.4155C172.82 27.9789 172.963 28.4128 173.251 28.7171C173.546 29.0214 173.931 29.2467 174.406 29.3932C174.888 29.5285 175.432 29.613 176.038 29.6468C176.652 29.6806 177.274 29.7144 177.904 29.7482C178.541 29.782 179.163 29.844 179.77 29.9342C180.384 30.013 180.928 30.1765 181.402 30.4244C181.884 30.661 182.269 31.0104 182.557 31.4724C182.852 31.9232 183 32.5317 183 33.298C183 33.9855 182.852 34.5658 182.557 35.0391C182.261 35.5125 181.869 35.8956 181.379 36.1886C180.889 36.4703 180.322 36.6788 179.676 36.8141C179.039 36.938 178.378 37 177.694 37C177.274 37 176.819 36.9831 176.33 36.9493C175.848 36.9268 175.362 36.8648 174.872 36.7633C174.39 36.6507 173.924 36.4872 173.473 36.2731C173.029 36.0477 172.641 35.7435 172.306 35.3603C172.198 35.2364 172.143 35.0899 172.143 34.9208C172.143 34.7743 172.17 34.6504 172.225 34.5489C172.287 34.4362 172.361 34.3799 172.446 34.3799C172.509 34.3799 172.555 34.4024 172.586 34.4475C172.913 34.7743 173.263 35.0391 173.636 35.242C174.017 35.4448 174.417 35.6026 174.837 35.7153C175.257 35.828 175.696 35.9069 176.155 35.952C176.613 35.9858 177.088 36.0027 177.577 36.0027C178.161 36.0027 178.72 35.9632 179.257 35.8843C179.801 35.7942 180.279 35.6477 180.691 35.4448C181.111 35.2307 181.445 34.9546 181.694 34.6165C181.943 34.2672 182.067 33.8277 182.067 33.298Z"/>
</mask>
<path d="M6.01442 19.1157H1.85128C1.75022 19.1157 1.64915 19.1157 1.54809 19.1157C1.44702 19.1157 1.35373 19.0988 1.26821 19.0649C1.19047 19.0311 1.12439 18.9804 1.06997 18.9128C1.02332 18.8339 1 18.7269 1 18.5916C1 18.4226 1.02721 18.2986 1.08163 18.2198C1.13605 18.1409 1.20213 18.0845 1.27987 18.0507C1.36539 18.0169 1.45868 18 1.55975 18C1.66081 18 1.75799 18 1.85128 18H11.1688C11.2854 18 11.3942 18 11.4953 18C11.5964 18 11.6819 18.0169 11.7518 18.0507C11.8296 18.0845 11.8918 18.1409 11.9384 18.2198C11.9851 18.2986 12.0084 18.4113 12.0084 18.5578C12.0084 18.7156 11.9851 18.8339 11.9384 18.9128C11.8918 18.9804 11.8296 19.0311 11.7518 19.0649C11.6819 19.0988 11.5964 19.1157 11.4953 19.1157C11.3942 19.1157 11.2854 19.1157 11.1688 19.1157H7.00564V35.7153H11.1688C11.2854 35.7153 11.3942 35.7153 11.4953 35.7153C11.5964 35.7153 11.6819 35.7322 11.7518 35.766C11.8296 35.7998 11.8918 35.8562 11.9384 35.9351C11.9851 36.0139 12.0084 36.1266 12.0084 36.2731C12.0084 36.4309 11.9851 36.5492 11.9384 36.6281C11.8918 36.6957 11.8296 36.7464 11.7518 36.7802C11.6819 36.8141 11.5964 36.831 11.4953 36.831C11.3942 36.831 11.2854 36.831 11.1688 36.831H1.85128C1.75799 36.831 1.66081 36.831 1.55975 36.831C1.45868 36.831 1.36539 36.8141 1.27987 36.7802C1.20213 36.7464 1.13605 36.6901 1.08163 36.6112C1.02721 36.5323 1 36.4084 1 36.2393C1 36.1041 1.02332 36.0027 1.06997 35.9351C1.12439 35.8562 1.19047 35.7998 1.26821 35.766C1.35373 35.7322 1.44702 35.7153 1.54809 35.7153C1.64915 35.7153 1.75022 35.7153 1.85128 35.7153H6.01442V19.1157Z" fill="#0F9CE6"/>
<path d="M18.9703 37C17.8974 37 16.9917 36.8479 16.2532 36.5436C15.5146 36.2281 14.916 35.7829 14.4573 35.2082C14.0064 34.6335 13.6799 33.9348 13.4777 33.1121C13.2756 32.2894 13.1745 31.3597 13.1745 30.323C13.1745 29.1284 13.2873 28.1085 13.5127 27.2633C13.7459 26.4069 14.0997 25.7026 14.5739 25.1504C15.0559 24.5982 15.6584 24.1925 16.3814 23.9333C17.1122 23.6741 17.9752 23.5445 18.9703 23.5445C19.9654 23.5445 20.8244 23.6741 21.5474 23.9333C22.2782 24.1925 22.8807 24.5982 23.355 25.1504C23.837 25.7026 24.1907 26.4069 24.4162 27.2633C24.6494 28.1085 24.766 29.1284 24.766 30.323C24.766 31.3597 24.6649 32.2894 24.4628 33.1121C24.2607 33.9348 23.9303 34.6335 23.4716 35.2082C23.0207 35.7829 22.4259 36.2281 21.6874 36.5436C20.9488 36.8479 20.0431 37 18.9703 37ZM18.9703 36.0027C19.6777 36.0027 20.288 35.9294 20.8011 35.7829C21.3142 35.6251 21.7496 35.411 22.1072 35.1406C22.4726 34.8701 22.7641 34.5546 22.9818 34.194C23.2073 33.8333 23.3822 33.4445 23.5066 33.0276C23.6387 32.5993 23.7242 32.1598 23.7631 31.7091C23.8098 31.247 23.8331 30.785 23.8331 30.323C23.8331 29.2749 23.7398 28.3846 23.5532 27.6521C23.3666 26.9196 23.0751 26.3224 22.6786 25.8603C22.2821 25.3983 21.7768 25.0658 21.1626 24.863C20.5485 24.6489 19.8177 24.5418 18.9703 24.5418C18.1151 24.5418 17.3804 24.6489 16.7663 24.863C16.1599 25.0658 15.6584 25.3983 15.2619 25.8603C14.8654 26.3224 14.5739 26.9196 14.3873 27.6521C14.2007 28.3846 14.1075 29.2749 14.1075 30.323C14.1075 30.785 14.1269 31.247 14.1658 31.7091C14.2124 32.1598 14.2979 32.5993 14.4223 33.0276C14.5545 33.4445 14.7294 33.8333 14.9471 34.194C15.1725 34.5546 15.4641 34.8701 15.8217 35.1406C16.1871 35.411 16.6263 35.6251 17.1394 35.7829C17.6525 35.9294 18.2628 36.0027 18.9703 36.0027Z" fill="#0F9CE6"/>
<path d="M37.0572 18.6254C37.0572 18.8508 37.0027 18.9917 36.8939 19.048C36.7851 19.0931 36.6451 19.1157 36.4741 19.1157H29.9553V35.5801C29.9553 35.7491 29.9515 35.9069 29.9437 36.0534C29.9359 36.1999 29.9126 36.3351 29.8737 36.4591C29.8426 36.5718 29.796 36.6619 29.7338 36.7295C29.6716 36.7972 29.5822 36.831 29.4656 36.831C29.2634 36.831 29.1274 36.707 29.0574 36.4591C28.9952 36.1999 28.9641 35.9069 28.9641 35.5801V19.1157H22.4337C22.2627 19.1157 22.115 19.0931 21.9906 19.048C21.874 18.9917 21.8157 18.8508 21.8157 18.6254C21.8157 18.4564 21.8429 18.3324 21.8973 18.2536C21.9517 18.1634 22.0178 18.1014 22.0955 18.0676C22.1811 18.0338 22.2743 18.0169 22.3754 18.0169C22.4842 18.0056 22.5853 18 22.6786 18H36.2175C36.3341 18 36.443 18.0056 36.5441 18.0169C36.6451 18.0169 36.7306 18.0338 36.8006 18.0676C36.8783 18.1014 36.9405 18.1634 36.9872 18.2536C37.0338 18.3324 37.0572 18.4564 37.0572 18.6254Z" fill="#0F9CE6"/>
<path d="M60.6832 27.3817C60.6832 29.1848 60.52 30.6892 60.1934 31.895C59.8669 33.1008 59.381 34.07 58.7358 34.8025C58.0905 35.535 57.2859 36.059 56.3218 36.3746C55.3656 36.6788 54.2539 36.831 52.9867 36.831H44.9636C44.847 36.831 44.7576 36.831 44.6954 36.831C44.641 36.8197 44.5982 36.7972 44.5671 36.7633C44.536 36.7183 44.5166 36.6563 44.5088 36.5774C44.5088 36.4985 44.5088 36.3858 44.5088 36.2393V18.6254C44.5088 18.4564 44.5088 18.3324 44.5088 18.2536C44.5166 18.1634 44.536 18.1014 44.5671 18.0676C44.5982 18.0338 44.6449 18.0169 44.7071 18.0169C44.777 18.0056 44.8703 18 44.9869 18H52.9867C54.2539 18 55.3656 18.1578 56.3218 18.4733C57.2859 18.7888 58.0905 19.3185 58.7358 20.0623C59.381 20.7948 59.8669 21.7583 60.1934 22.9528C60.52 24.1474 60.6832 25.6237 60.6832 27.3817ZM59.692 27.3817C59.692 25.9279 59.5793 24.6827 59.3538 23.6459C59.1284 22.5979 58.7552 21.7414 58.2343 21.0765C57.7134 20.4004 57.0254 19.9045 56.1702 19.589C55.3151 19.2734 54.2539 19.1157 52.9867 19.1157H45.5V35.7153H52.9867C54.2539 35.7153 55.3151 35.5575 56.1702 35.242C57.0254 34.9265 57.7134 34.4362 58.2343 33.7714C58.7552 33.0952 59.1284 32.2331 59.3538 31.1851C59.5793 30.1257 59.692 28.8579 59.692 27.3817Z" fill="#0F9CE6"/>
<path d="M64.6131 33.0445C64.6131 33.5854 64.7064 34.0418 64.893 34.4137C65.0874 34.7856 65.3556 35.0899 65.6976 35.3265C66.0397 35.5632 66.444 35.7378 66.9104 35.8505C67.3847 35.952 67.9016 36.0027 68.4614 36.0027C69.1455 36.0027 69.7519 35.9351 70.2806 35.7998C70.8092 35.6533 71.2718 35.473 71.6683 35.2589C72.0648 35.0448 72.3991 34.8138 72.6712 34.5658C72.9433 34.3066 73.1687 34.0587 73.3475 33.8221V30.4244C72.5701 30.2666 71.7655 30.1201 70.9336 29.9849C70.1018 29.8384 69.2621 29.7651 68.4148 29.7651C67.8161 29.7651 67.2797 29.8158 66.8055 29.9173C66.339 30.0187 65.9425 30.1934 65.616 30.4413C65.2895 30.6892 65.0407 31.0273 64.8697 31.4555C64.6986 31.8725 64.6131 32.4021 64.6131 33.0445ZM69.5692 24.5418C68.8229 24.5418 68.1854 24.57 67.6568 24.6263C67.1281 24.6827 66.6733 24.7559 66.2924 24.8461C65.9192 24.9362 65.6043 25.032 65.3478 25.1335C65.0912 25.2349 64.8658 25.3363 64.6714 25.4377C64.5781 25.4377 64.4926 25.3701 64.4149 25.2349C64.3371 25.0996 64.2983 24.9531 64.2983 24.7954C64.2983 24.6489 64.3449 24.5418 64.4382 24.4742C64.5004 24.4291 64.6442 24.3559 64.8697 24.2544C65.1029 24.153 65.4255 24.0516 65.8376 23.9502C66.2574 23.8375 66.7744 23.7417 67.3885 23.6628C68.0105 23.5839 68.7413 23.5445 69.5809 23.5445C69.9774 23.5445 70.37 23.5839 70.7587 23.6628C71.1474 23.7304 71.5128 23.86 71.8549 24.0516C72.2047 24.2432 72.5273 24.508 72.8228 24.8461C73.126 25.1842 73.3825 25.6237 73.5924 26.1646C73.8101 26.6942 73.9811 27.3422 74.1055 28.1085C74.2299 28.8636 74.2921 29.7539 74.2921 30.7794V35.6477C74.2921 35.7829 74.2882 35.9181 74.2805 36.0534C74.2727 36.1886 74.2494 36.3182 74.2105 36.4422C74.1794 36.5549 74.1327 36.6507 74.0705 36.7295C74.0084 36.7972 73.9228 36.831 73.814 36.831C73.6352 36.831 73.5108 36.7126 73.4408 36.476C73.3786 36.2393 73.3475 35.9407 73.3475 35.5801V34.4137C73.1921 34.6954 72.9899 34.9884 72.7411 35.2927C72.4924 35.597 72.1775 35.8787 71.7966 36.1379C71.4156 36.3858 70.9608 36.5943 70.4322 36.7633C69.9035 36.9211 69.2777 37 68.5547 37C67.8783 37 67.2408 36.9268 66.6422 36.7802C66.0514 36.6337 65.5344 36.4027 65.0912 36.0872C64.6559 35.7716 64.3099 35.366 64.0534 34.8701C63.8046 34.363 63.6802 33.7544 63.6802 33.0445C63.6802 32.2218 63.7968 31.54 64.0301 30.9991C64.2711 30.4469 64.6015 30.0074 65.0213 29.6806C65.4411 29.3425 65.9309 29.1059 66.4906 28.9706C67.0581 28.8354 67.6684 28.7678 68.3215 28.7678C68.8112 28.7678 69.301 28.796 69.7908 28.8523C70.2884 28.8974 70.7587 28.9706 71.2018 29.0721C71.645 29.1622 72.0492 29.2805 72.4146 29.427C72.7878 29.5623 73.0988 29.7257 73.3475 29.9173C73.3475 28.7678 73.2426 27.8437 73.0327 27.145C72.8228 26.4463 72.5429 25.9054 72.1931 25.5222C71.8432 25.1278 71.4389 24.8686 70.9803 24.7447C70.5294 24.6094 70.059 24.5418 69.5692 24.5418Z" fill="#0F9CE6"/>
<path d="M87.5861 33.298C87.5861 32.7008 87.4384 32.2387 87.143 31.9119C86.8554 31.5851 86.4705 31.3485 85.9885 31.202C85.5143 31.0442 84.9701 30.9484 84.3559 30.9146C83.7495 30.8695 83.1276 30.8357 82.4901 30.8132C81.8604 30.7794 81.2384 30.7286 80.6243 30.661C80.0179 30.5821 79.4737 30.43 78.9917 30.2046C78.5174 29.968 78.1326 29.6355 77.8372 29.2073C77.5495 28.7678 77.4057 28.1705 77.4057 27.4155C77.4057 26.6379 77.5495 26.0012 77.8372 25.5053C78.1326 25.0095 78.5174 24.6151 78.9917 24.3221C79.4659 24.0291 80.0023 23.8262 80.6009 23.7135C81.1996 23.6008 81.8099 23.5445 82.4318 23.5445C83.4502 23.5445 84.3987 23.6684 85.2772 23.9164C86.1557 24.153 86.972 24.5587 87.7261 25.1335C87.8038 25.1898 87.8544 25.263 87.8777 25.3532C87.9088 25.4321 87.9282 25.5166 87.936 25.6068C87.936 25.7533 87.9049 25.8829 87.8427 25.9956C87.7805 26.1082 87.7105 26.1646 87.6328 26.1646C87.5861 26.1646 87.5551 26.1533 87.5395 26.1308C86.8787 25.6462 86.1285 25.263 85.2888 24.9813C84.457 24.6883 83.5202 24.5418 82.4784 24.5418C81.9498 24.5418 81.4367 24.5925 80.9391 24.694C80.4416 24.7841 79.9984 24.9419 79.6097 25.1673C79.2288 25.3814 78.9217 25.6744 78.6885 26.0463C78.4552 26.4069 78.3386 26.8633 78.3386 27.4155C78.3386 27.9789 78.4825 28.4128 78.7701 28.7171C79.0655 29.0214 79.4504 29.2467 79.9246 29.3932C80.4066 29.5285 80.9508 29.613 81.5572 29.6468C82.1714 29.6806 82.7933 29.7144 83.423 29.7482C84.0605 29.782 84.6825 29.844 85.2888 29.9342C85.903 30.013 86.4472 30.1765 86.9214 30.4244C87.4035 30.661 87.7883 31.0104 88.0759 31.4724C88.3714 31.9232 88.5191 32.5317 88.5191 33.298C88.5191 33.9855 88.3714 34.5658 88.0759 35.0391C87.7805 35.5125 87.3879 35.8956 86.8981 36.1886C86.4083 36.4703 85.8408 36.6788 85.1956 36.8141C84.5581 36.938 83.8972 37 83.2131 37C82.7933 37 82.3385 36.9831 81.8487 36.9493C81.3667 36.9268 80.8808 36.8648 80.391 36.7633C79.909 36.6507 79.4426 36.4872 78.9917 36.2731C78.5485 36.0477 78.1598 35.7435 77.8255 35.3603C77.7167 35.2364 77.6623 35.0899 77.6623 34.9208C77.6623 34.7743 77.6895 34.6504 77.7439 34.5489C77.8061 34.4362 77.8799 34.3799 77.9655 34.3799C78.0277 34.3799 78.0743 34.4024 78.1054 34.4475C78.4319 34.7743 78.7818 35.0391 79.1549 35.242C79.5359 35.4448 79.9362 35.6026 80.3561 35.7153C80.7759 35.828 81.2151 35.9069 81.6738 35.952C82.1325 35.9858 82.6067 36.0027 83.0965 36.0027C83.6796 36.0027 84.2393 35.9632 84.7757 35.8843C85.3199 35.7942 85.7981 35.6477 86.2101 35.4448C86.6299 35.2307 86.9642 34.9546 87.213 34.6165C87.4618 34.2672 87.5861 33.8277 87.5861 33.298Z" fill="#0F9CE6"/>
<path d="M102.058 35.6139C102.058 35.7604 102.05 35.9069 102.035 36.0534C102.027 36.1999 102.007 36.3295 101.976 36.4422C101.945 36.5549 101.899 36.6507 101.836 36.7295C101.782 36.7972 101.708 36.831 101.615 36.831C101.498 36.831 101.409 36.7972 101.347 36.7295C101.284 36.6507 101.234 36.5549 101.195 36.4422C101.164 36.3295 101.145 36.1999 101.137 36.0534C101.129 35.9069 101.125 35.7604 101.125 35.6139V29.7651C101.125 28.8861 101.078 28.1198 100.985 27.4662C100.892 26.8126 100.713 26.2716 100.449 25.8434C100.192 25.4039 99.8307 25.0771 99.3642 24.863C98.8977 24.6489 98.2913 24.5418 97.545 24.5418C97.0941 24.5418 96.6082 24.5982 96.0873 24.7109C95.5665 24.8123 95.0689 24.9982 94.5947 25.2687C94.1282 25.5279 93.7123 25.8772 93.3469 26.3167C92.9815 26.7562 92.7288 27.3084 92.5889 27.9733V35.6139C92.5889 35.7604 92.5811 35.9069 92.5656 36.0534C92.5578 36.1999 92.5384 36.3295 92.5073 36.4422C92.4762 36.5549 92.4295 36.6507 92.3673 36.7295C92.3129 36.7972 92.2391 36.831 92.1458 36.831C92.0369 36.831 91.9475 36.7972 91.8776 36.7295C91.8154 36.6507 91.7648 36.5549 91.726 36.4422C91.6949 36.3295 91.6754 36.1999 91.6677 36.0534C91.6599 35.9069 91.656 35.7604 91.656 35.6139V19.1833C91.656 19.048 91.6599 18.9128 91.6677 18.7776C91.6754 18.6311 91.6949 18.5015 91.726 18.3888C91.7648 18.2761 91.8154 18.1859 91.8776 18.1183C91.9475 18.0394 92.0369 18 92.1458 18C92.2391 18 92.3129 18.0338 92.3673 18.1014C92.4295 18.169 92.4762 18.2592 92.5073 18.3719C92.5384 18.4846 92.5578 18.6142 92.5656 18.7607C92.5811 18.8959 92.5889 19.0368 92.5889 19.1833V26.79C92.6744 26.3393 92.8182 25.9448 93.0204 25.6068C93.2303 25.2687 93.4713 24.9813 93.7434 24.7447C94.0233 24.4967 94.3303 24.2995 94.6646 24.153C94.9989 23.9953 95.3332 23.8713 95.6675 23.7811C96.0096 23.691 96.34 23.629 96.6587 23.5952C96.9853 23.5614 97.2807 23.5445 97.545 23.5445C98.3846 23.5445 99.0921 23.6515 99.6674 23.8657C100.243 24.0685 100.705 24.4122 101.055 24.8968C101.413 25.3814 101.669 26.0237 101.825 26.8238C101.98 27.6127 102.058 28.5931 102.058 29.7651V35.6139Z" fill="#0F9CE6"/>
<path d="M111.807 23.5445C112.507 23.5445 113.167 23.6515 113.789 23.8657C114.419 24.0685 114.967 24.4235 115.434 24.9306C115.908 25.4377 116.281 26.1139 116.553 26.9591C116.833 27.8043 116.973 28.8636 116.973 30.137C116.973 31.3992 116.856 32.4698 116.623 33.3488C116.398 34.2165 116.063 34.9208 115.62 35.4617C115.185 36.0027 114.645 36.3971 113.999 36.645C113.362 36.8817 112.631 37 111.807 37C111.177 37 110.598 36.9437 110.069 36.831C109.541 36.7183 109.059 36.5774 108.623 36.4084C108.196 36.2281 107.811 36.0308 107.469 35.8167C107.127 35.6026 106.824 35.3941 106.559 35.1913V35.597C106.559 35.766 106.555 35.9238 106.548 36.0703C106.54 36.2168 106.52 36.3464 106.489 36.4591C106.458 36.5718 106.412 36.6619 106.349 36.7295C106.287 36.7972 106.198 36.831 106.081 36.831C105.965 36.831 105.875 36.7972 105.813 36.7295C105.759 36.6619 105.716 36.5718 105.685 36.4591C105.654 36.3464 105.634 36.2168 105.626 36.0703C105.626 35.9238 105.626 35.766 105.626 35.597V18.8283C105.626 18.4677 105.677 18.2423 105.778 18.1521C105.887 18.0507 106 18 106.116 18C106.233 18 106.334 18.0507 106.419 18.1521C106.513 18.2423 106.559 18.4677 106.559 18.8283V26.9084C106.645 26.4351 106.796 26.0237 107.014 25.6744C107.232 25.3138 107.488 25.0095 107.784 24.7616C108.087 24.5136 108.417 24.3108 108.775 24.153C109.133 23.9953 109.49 23.8713 109.848 23.7811C110.213 23.691 110.563 23.629 110.897 23.5952C111.239 23.5614 111.543 23.5445 111.807 23.5445ZM111.807 24.5418C111.34 24.5531 110.831 24.6094 110.279 24.7109C109.727 24.801 109.199 24.97 108.693 25.218C108.188 25.4659 107.741 25.8096 107.352 26.2491C106.964 26.6886 106.699 27.2633 106.559 27.9733V34.4644C106.894 34.6447 107.251 34.8307 107.632 35.0222C108.021 35.2026 108.433 35.366 108.868 35.5125C109.304 35.659 109.766 35.7773 110.256 35.8674C110.746 35.9576 111.263 36.0027 111.807 36.0027C112.553 36.0027 113.191 35.89 113.719 35.6646C114.256 35.4392 114.695 35.0899 115.037 34.6165C115.387 34.132 115.64 33.5234 115.795 32.7909C115.958 32.0472 116.04 31.1625 116.04 30.137C116.04 29.0777 115.927 28.1874 115.702 27.4662C115.484 26.745 115.185 26.1702 114.804 25.742C114.423 25.3138 113.972 25.0095 113.451 24.8292C112.938 24.6376 112.39 24.5418 111.807 24.5418Z" fill="#0F9CE6"/>
<path d="M125.649 37C124.576 37 123.671 36.8479 122.932 36.5436C122.193 36.2281 121.595 35.7829 121.136 35.2082C120.685 34.6335 120.359 33.9348 120.157 33.1121C119.954 32.2894 119.853 31.3597 119.853 30.323C119.853 29.1284 119.966 28.1085 120.192 27.2633C120.425 26.4069 120.778 25.7026 121.253 25.1504C121.735 24.5982 122.337 24.1925 123.06 23.9333C123.791 23.6741 124.654 23.5445 125.649 23.5445C126.644 23.5445 127.503 23.6741 128.226 23.9333C128.957 24.1925 129.56 24.5982 130.034 25.1504C130.516 25.7026 130.87 26.4069 131.095 27.2633C131.328 28.1085 131.445 29.1284 131.445 30.323C131.445 31.3597 131.344 32.2894 131.142 33.1121C130.939 33.9348 130.609 34.6335 130.15 35.2082C129.699 35.7829 129.105 36.2281 128.366 36.5436C127.628 36.8479 126.722 37 125.649 37ZM125.649 36.0027C126.357 36.0027 126.967 35.9294 127.48 35.7829C127.993 35.6251 128.428 35.411 128.786 35.1406C129.151 34.8701 129.443 34.5546 129.661 34.194C129.886 33.8333 130.061 33.4445 130.185 33.0276C130.318 32.5993 130.403 32.1598 130.442 31.7091C130.489 31.247 130.512 30.785 130.512 30.323C130.512 29.2749 130.419 28.3846 130.232 27.6521C130.045 26.9196 129.754 26.3224 129.357 25.8603C128.961 25.3983 128.456 25.0658 127.841 24.863C127.227 24.6489 126.496 24.5418 125.649 24.5418C124.794 24.5418 124.059 24.6489 123.445 24.863C122.839 25.0658 122.337 25.3983 121.941 25.8603C121.544 26.3224 121.253 26.9196 121.066 27.6521C120.88 28.3846 120.786 29.2749 120.786 30.323C120.786 30.785 120.806 31.247 120.845 31.7091C120.891 32.1598 120.977 32.5993 121.101 33.0276C121.233 33.4445 121.408 33.8333 121.626 34.194C121.851 34.5546 122.143 34.8701 122.5 35.1406C122.866 35.411 123.305 35.6251 123.818 35.7829C124.331 35.9294 124.942 36.0027 125.649 36.0027Z" fill="#0F9CE6"/>
<path d="M135.375 33.0445C135.375 33.5854 135.468 34.0418 135.655 34.4137C135.849 34.7856 136.117 35.0899 136.459 35.3265C136.801 35.5632 137.206 35.7378 137.672 35.8505C138.146 35.952 138.663 36.0027 139.223 36.0027C139.907 36.0027 140.514 35.9351 141.042 35.7998C141.571 35.6533 142.033 35.473 142.43 35.2589C142.826 35.0448 143.161 34.8138 143.433 34.5658C143.705 34.3066 143.93 34.0587 144.109 33.8221V30.4244C143.332 30.2666 142.527 30.1201 141.695 29.9849C140.863 29.8384 140.024 29.7651 139.176 29.7651C138.578 29.7651 138.041 29.8158 137.567 29.9173C137.101 30.0187 136.704 30.1934 136.378 30.4413C136.051 30.6892 135.802 31.0273 135.631 31.4555C135.46 31.8725 135.375 32.4021 135.375 33.0445ZM140.331 24.5418C139.584 24.5418 138.947 24.57 138.418 24.6263C137.89 24.6827 137.435 24.7559 137.054 24.8461C136.681 24.9362 136.366 25.032 136.109 25.1335C135.853 25.2349 135.627 25.3363 135.433 25.4377C135.34 25.4377 135.254 25.3701 135.176 25.2349C135.099 25.0996 135.06 24.9531 135.06 24.7954C135.06 24.6489 135.106 24.5418 135.2 24.4742C135.262 24.4291 135.406 24.3559 135.631 24.2544C135.864 24.153 136.187 24.0516 136.599 23.9502C137.019 23.8375 137.536 23.7417 138.15 23.6628C138.772 23.5839 139.503 23.5445 140.342 23.5445C140.739 23.5445 141.132 23.5839 141.52 23.6628C141.909 23.7304 142.274 23.86 142.616 24.0516C142.966 24.2432 143.289 24.508 143.584 24.8461C143.888 25.1842 144.144 25.6237 144.354 26.1646C144.572 26.6942 144.743 27.3422 144.867 28.1085C144.992 28.8636 145.054 29.7539 145.054 30.7794V35.6477C145.054 35.7829 145.05 35.9181 145.042 36.0534C145.034 36.1886 145.011 36.3182 144.972 36.4422C144.941 36.5549 144.894 36.6507 144.832 36.7295C144.77 36.7972 144.684 36.831 144.576 36.831C144.397 36.831 144.272 36.7126 144.202 36.476C144.14 36.2393 144.109 35.9407 144.109 35.5801V34.4137C143.954 34.6954 143.752 34.9884 143.503 35.2927C143.254 35.597 142.939 35.8787 142.558 36.1379C142.177 36.3858 141.722 36.5943 141.194 36.7633C140.665 36.9211 140.039 37 139.316 37C138.64 37 138.002 36.9268 137.404 36.7802C136.813 36.6337 136.296 36.4027 135.853 36.0872C135.417 35.7716 135.072 35.366 134.815 34.8701C134.566 34.363 134.442 33.7544 134.442 33.0445C134.442 32.2218 134.558 31.54 134.792 30.9991C135.033 30.4469 135.363 30.0074 135.783 29.6806C136.203 29.3425 136.692 29.1059 137.252 28.9706C137.82 28.8354 138.43 28.7678 139.083 28.7678C139.573 28.7678 140.063 28.796 140.552 28.8523C141.05 28.8974 141.52 28.9706 141.963 29.0721C142.407 29.1622 142.811 29.2805 143.176 29.427C143.549 29.5623 143.86 29.7257 144.109 29.9173C144.109 28.7678 144.004 27.8437 143.794 27.145C143.584 26.4463 143.304 25.9054 142.955 25.5222C142.605 25.1278 142.201 24.8686 141.742 24.7447C141.291 24.6094 140.821 24.5418 140.331 24.5418Z" fill="#0F9CE6"/>
<path d="M155.502 23.9502C155.588 23.984 155.65 24.0516 155.689 24.153C155.728 24.2432 155.747 24.3446 155.747 24.4573C155.747 24.6038 155.712 24.739 155.642 24.863C155.58 24.987 155.483 25.0489 155.351 25.0489C155.312 25.0489 155.289 25.0489 155.281 25.0489C155.273 25.0377 155.25 25.0264 155.211 25.0151C154.908 24.8912 154.616 24.7954 154.336 24.7278C154.064 24.6601 153.765 24.6263 153.438 24.6263C152.98 24.6263 152.54 24.694 152.121 24.8292C151.708 24.9531 151.331 25.1504 150.989 25.4208C150.655 25.68 150.364 26.0181 150.115 26.4351C149.866 26.8407 149.679 27.3197 149.555 27.8719V35.6477C149.555 35.9407 149.528 36.2112 149.473 36.4591C149.419 36.707 149.295 36.831 149.1 36.831C148.991 36.831 148.902 36.7972 148.832 36.7295C148.77 36.6619 148.723 36.5718 148.692 36.4591C148.661 36.3464 148.642 36.2224 148.634 36.0872C148.626 35.9407 148.622 35.7942 148.622 35.6477V24.8292C148.622 24.57 148.653 24.3502 148.715 24.1699C148.778 23.9784 148.921 23.8826 149.147 23.8826C149.318 23.8826 149.427 23.9727 149.473 24.153C149.528 24.3333 149.555 24.5587 149.555 24.8292V26.79C149.679 26.1026 149.893 25.5448 150.196 25.1165C150.507 24.6883 150.849 24.3615 151.223 24.1361C151.604 23.8995 151.992 23.7417 152.389 23.6628C152.785 23.5839 153.135 23.5445 153.438 23.5445C153.734 23.5445 153.986 23.5614 154.196 23.5952C154.414 23.6177 154.601 23.6515 154.756 23.6966C154.911 23.7304 155.048 23.7699 155.164 23.8149C155.281 23.86 155.394 23.9051 155.502 23.9502Z" fill="#0F9CE6"/>
<path d="M162.453 37C161.753 37 161.088 36.8986 160.458 36.6957C159.837 36.4816 159.288 36.121 158.814 35.6139C158.348 35.1068 157.975 34.4306 157.695 33.5854C157.423 32.7402 157.287 31.6809 157.287 30.4075C157.287 29.1453 157.399 28.0804 157.625 27.2126C157.858 26.3336 158.192 25.6237 158.628 25.0827C159.071 24.5418 159.611 24.153 160.249 23.9164C160.894 23.6684 161.628 23.5445 162.453 23.5445C163.277 23.5445 163.984 23.6177 164.575 23.7642C165.166 23.8995 165.663 24.0741 166.068 24.2883C166.48 24.5024 166.814 24.739 167.07 24.9982C167.335 25.2461 167.545 25.4772 167.7 25.6913V19.2002C167.7 19.0537 167.7 18.9072 167.7 18.7607C167.708 18.6142 167.727 18.4846 167.759 18.3719C167.79 18.2592 167.832 18.169 167.887 18.1014C167.949 18.0338 168.038 18 168.155 18C168.272 18 168.361 18.0338 168.423 18.1014C168.485 18.1578 168.532 18.2367 168.563 18.3381C168.594 18.4395 168.614 18.5635 168.621 18.71C168.629 18.8452 168.633 18.9973 168.633 19.1664V35.9181C168.633 36.2788 168.583 36.5211 168.482 36.645C168.388 36.769 168.287 36.831 168.178 36.831C168.046 36.831 167.933 36.7746 167.84 36.6619C167.747 36.5492 167.7 36.3126 167.7 35.952V33.6023C167.615 34.0869 167.463 34.5095 167.245 34.8701C167.028 35.2195 166.767 35.5181 166.464 35.766C166.169 36.0139 165.842 36.2224 165.485 36.3915C165.127 36.5492 164.765 36.6732 164.4 36.7633C164.042 36.8535 163.693 36.9155 163.35 36.9493C163.016 36.9831 162.717 37 162.453 37ZM162.453 36.0027C162.919 35.9914 163.428 35.9407 163.98 35.8505C164.532 35.7491 165.061 35.5744 165.566 35.3265C166.071 35.0786 166.519 34.7349 166.907 34.2954C167.296 33.8559 167.56 33.2811 167.7 32.5712V26.4858C167.521 26.2829 167.292 26.0688 167.012 25.8434C166.74 25.618 166.394 25.4095 165.974 25.218C165.562 25.0151 165.065 24.8517 164.482 24.7278C163.906 24.6038 163.23 24.5418 162.453 24.5418C161.706 24.5418 161.065 24.6545 160.528 24.8799C160 25.1053 159.561 25.4603 159.211 25.9448C158.869 26.4181 158.616 27.0267 158.453 27.7705C158.297 28.503 158.219 29.382 158.219 30.4075C158.219 31.4781 158.328 32.374 158.546 33.0952C158.771 33.8052 159.075 34.3743 159.456 34.8025C159.837 35.2307 160.284 35.5406 160.797 35.7322C161.318 35.9125 161.869 36.0027 162.453 36.0027Z" fill="#0F9CE6"/>
<path d="M182.067 33.298C182.067 32.7008 181.919 32.2387 181.624 31.9119C181.336 31.5851 180.951 31.3485 180.469 31.202C179.995 31.0442 179.451 30.9484 178.837 30.9146C178.23 30.8695 177.609 30.8357 176.971 30.8132C176.341 30.7794 175.719 30.7286 175.105 30.661C174.499 30.5821 173.955 30.43 173.473 30.2046C172.998 29.968 172.614 29.6355 172.318 29.2073C172.03 28.7678 171.887 28.1705 171.887 27.4155C171.887 26.6379 172.03 26.0012 172.318 25.5053C172.614 25.0095 172.998 24.6151 173.473 24.3221C173.947 24.0291 174.483 23.8262 175.082 23.7135C175.681 23.6008 176.291 23.5445 176.913 23.5445C177.931 23.5445 178.88 23.6684 179.758 23.9164C180.637 24.153 181.453 24.5587 182.207 25.1335C182.285 25.1898 182.335 25.263 182.359 25.3532C182.39 25.4321 182.409 25.5166 182.417 25.6068C182.417 25.7533 182.386 25.8829 182.324 25.9956C182.261 26.1082 182.191 26.1646 182.114 26.1646C182.067 26.1646 182.036 26.1533 182.02 26.1308C181.36 25.6462 180.609 25.263 179.77 24.9813C178.938 24.6883 178.001 24.5418 176.959 24.5418C176.431 24.5418 175.918 24.5925 175.42 24.694C174.923 24.7841 174.479 24.9419 174.091 25.1673C173.71 25.3814 173.403 25.6744 173.169 26.0463C172.936 26.4069 172.82 26.8633 172.82 27.4155C172.82 27.9789 172.963 28.4128 173.251 28.7171C173.546 29.0214 173.931 29.2467 174.406 29.3932C174.888 29.5285 175.432 29.613 176.038 29.6468C176.652 29.6806 177.274 29.7144 177.904 29.7482C178.541 29.782 179.163 29.844 179.77 29.9342C180.384 30.013 180.928 30.1765 181.402 30.4244C181.884 30.661 182.269 31.0104 182.557 31.4724C182.852 31.9232 183 32.5317 183 33.298C183 33.9855 182.852 34.5658 182.557 35.0391C182.261 35.5125 181.869 35.8956 181.379 36.1886C180.889 36.4703 180.322 36.6788 179.676 36.8141C179.039 36.938 178.378 37 177.694 37C177.274 37 176.819 36.9831 176.33 36.9493C175.848 36.9268 175.362 36.8648 174.872 36.7633C174.39 36.6507 173.924 36.4872 173.473 36.2731C173.029 36.0477 172.641 35.7435 172.306 35.3603C172.198 35.2364 172.143 35.0899 172.143 34.9208C172.143 34.7743 172.17 34.6504 172.225 34.5489C172.287 34.4362 172.361 34.3799 172.446 34.3799C172.509 34.3799 172.555 34.4024 172.586 34.4475C172.913 34.7743 173.263 35.0391 173.636 35.242C174.017 35.4448 174.417 35.6026 174.837 35.7153C175.257 35.828 175.696 35.9069 176.155 35.952C176.613 35.9858 177.088 36.0027 177.577 36.0027C178.161 36.0027 178.72 35.9632 179.257 35.8843C179.801 35.7942 180.279 35.6477 180.691 35.4448C181.111 35.2307 181.445 34.9546 181.694 34.6165C181.943 34.2672 182.067 33.8277 182.067 33.298Z" fill="#0F9CE6"/>
<path d="M6.01442 19.1157H1.85128C1.75022 19.1157 1.64915 19.1157 1.54809 19.1157C1.44702 19.1157 1.35373 19.0988 1.26821 19.0649C1.19047 19.0311 1.12439 18.9804 1.06997 18.9128C1.02332 18.8339 1 18.7269 1 18.5916C1 18.4226 1.02721 18.2986 1.08163 18.2198C1.13605 18.1409 1.20213 18.0845 1.27987 18.0507C1.36539 18.0169 1.45868 18 1.55975 18C1.66081 18 1.75799 18 1.85128 18H11.1688C11.2854 18 11.3942 18 11.4953 18C11.5964 18 11.6819 18.0169 11.7518 18.0507C11.8296 18.0845 11.8918 18.1409 11.9384 18.2198C11.9851 18.2986 12.0084 18.4113 12.0084 18.5578C12.0084 18.7156 11.9851 18.8339 11.9384 18.9128C11.8918 18.9804 11.8296 19.0311 11.7518 19.0649C11.6819 19.0988 11.5964 19.1157 11.4953 19.1157C11.3942 19.1157 11.2854 19.1157 11.1688 19.1157H7.00564V35.7153H11.1688C11.2854 35.7153 11.3942 35.7153 11.4953 35.7153C11.5964 35.7153 11.6819 35.7322 11.7518 35.766C11.8296 35.7998 11.8918 35.8562 11.9384 35.9351C11.9851 36.0139 12.0084 36.1266 12.0084 36.2731C12.0084 36.4309 11.9851 36.5492 11.9384 36.6281C11.8918 36.6957 11.8296 36.7464 11.7518 36.7802C11.6819 36.8141 11.5964 36.831 11.4953 36.831C11.3942 36.831 11.2854 36.831 11.1688 36.831H1.85128C1.75799 36.831 1.66081 36.831 1.55975 36.831C1.45868 36.831 1.36539 36.8141 1.27987 36.7802C1.20213 36.7464 1.13605 36.6901 1.08163 36.6112C1.02721 36.5323 1 36.4084 1 36.2393C1 36.1041 1.02332 36.0027 1.06997 35.9351C1.12439 35.8562 1.19047 35.7998 1.26821 35.766C1.35373 35.7322 1.44702 35.7153 1.54809 35.7153C1.64915 35.7153 1.75022 35.7153 1.85128 35.7153H6.01442V19.1157Z" stroke="#0F9CE6" mask="url(#path-6-outside-1)"/>
<path d="M18.9703 37C17.8974 37 16.9917 36.8479 16.2532 36.5436C15.5146 36.2281 14.916 35.7829 14.4573 35.2082C14.0064 34.6335 13.6799 33.9348 13.4777 33.1121C13.2756 32.2894 13.1745 31.3597 13.1745 30.323C13.1745 29.1284 13.2873 28.1085 13.5127 27.2633C13.7459 26.4069 14.0997 25.7026 14.5739 25.1504C15.0559 24.5982 15.6584 24.1925 16.3814 23.9333C17.1122 23.6741 17.9752 23.5445 18.9703 23.5445C19.9654 23.5445 20.8244 23.6741 21.5474 23.9333C22.2782 24.1925 22.8807 24.5982 23.355 25.1504C23.837 25.7026 24.1907 26.4069 24.4162 27.2633C24.6494 28.1085 24.766 29.1284 24.766 30.323C24.766 31.3597 24.6649 32.2894 24.4628 33.1121C24.2607 33.9348 23.9303 34.6335 23.4716 35.2082C23.0207 35.7829 22.4259 36.2281 21.6874 36.5436C20.9488 36.8479 20.0431 37 18.9703 37ZM18.9703 36.0027C19.6777 36.0027 20.288 35.9294 20.8011 35.7829C21.3142 35.6251 21.7496 35.411 22.1072 35.1406C22.4726 34.8701 22.7641 34.5546 22.9818 34.194C23.2073 33.8333 23.3822 33.4445 23.5066 33.0276C23.6387 32.5993 23.7242 32.1598 23.7631 31.7091C23.8098 31.247 23.8331 30.785 23.8331 30.323C23.8331 29.2749 23.7398 28.3846 23.5532 27.6521C23.3666 26.9196 23.0751 26.3224 22.6786 25.8603C22.2821 25.3983 21.7768 25.0658 21.1626 24.863C20.5485 24.6489 19.8177 24.5418 18.9703 24.5418C18.1151 24.5418 17.3804 24.6489 16.7663 24.863C16.1599 25.0658 15.6584 25.3983 15.2619 25.8603C14.8654 26.3224 14.5739 26.9196 14.3873 27.6521C14.2007 28.3846 14.1075 29.2749 14.1075 30.323C14.1075 30.785 14.1269 31.247 14.1658 31.7091C14.2124 32.1598 14.2979 32.5993 14.4223 33.0276C14.5545 33.4445 14.7294 33.8333 14.9471 34.194C15.1725 34.5546 15.4641 34.8701 15.8217 35.1406C16.1871 35.411 16.6263 35.6251 17.1394 35.7829C17.6525 35.9294 18.2628 36.0027 18.9703 36.0027Z" stroke="#0F9CE6" mask="url(#path-6-outside-1)"/>
<path d="M37.0572 18.6254C37.0572 18.8508 37.0027 18.9917 36.8939 19.048C36.7851 19.0931 36.6451 19.1157 36.4741 19.1157H29.9553V35.5801C29.9553 35.7491 29.9515 35.9069 29.9437 36.0534C29.9359 36.1999 29.9126 36.3351 29.8737 36.4591C29.8426 36.5718 29.796 36.6619 29.7338 36.7295C29.6716 36.7972 29.5822 36.831 29.4656 36.831C29.2634 36.831 29.1274 36.707 29.0574 36.4591C28.9952 36.1999 28.9641 35.9069 28.9641 35.5801V19.1157H22.4337C22.2627 19.1157 22.115 19.0931 21.9906 19.048C21.874 18.9917 21.8157 18.8508 21.8157 18.6254C21.8157 18.4564 21.8429 18.3324 21.8973 18.2536C21.9517 18.1634 22.0178 18.1014 22.0955 18.0676C22.1811 18.0338 22.2743 18.0169 22.3754 18.0169C22.4842 18.0056 22.5853 18 22.6786 18H36.2175C36.3341 18 36.443 18.0056 36.5441 18.0169C36.6451 18.0169 36.7306 18.0338 36.8006 18.0676C36.8783 18.1014 36.9405 18.1634 36.9872 18.2536C37.0338 18.3324 37.0572 18.4564 37.0572 18.6254Z" stroke="#0F9CE6" mask="url(#path-6-outside-1)"/>
<path d="M60.6832 27.3817C60.6832 29.1848 60.52 30.6892 60.1934 31.895C59.8669 33.1008 59.381 34.07 58.7358 34.8025C58.0905 35.535 57.2859 36.059 56.3218 36.3746C55.3656 36.6788 54.2539 36.831 52.9867 36.831H44.9636C44.847 36.831 44.7576 36.831 44.6954 36.831C44.641 36.8197 44.5982 36.7972 44.5671 36.7633C44.536 36.7183 44.5166 36.6563 44.5088 36.5774C44.5088 36.4985 44.5088 36.3858 44.5088 36.2393V18.6254C44.5088 18.4564 44.5088 18.3324 44.5088 18.2536C44.5166 18.1634 44.536 18.1014 44.5671 18.0676C44.5982 18.0338 44.6449 18.0169 44.7071 18.0169C44.777 18.0056 44.8703 18 44.9869 18H52.9867C54.2539 18 55.3656 18.1578 56.3218 18.4733C57.2859 18.7888 58.0905 19.3185 58.7358 20.0623C59.381 20.7948 59.8669 21.7583 60.1934 22.9528C60.52 24.1474 60.6832 25.6237 60.6832 27.3817ZM59.692 27.3817C59.692 25.9279 59.5793 24.6827 59.3538 23.6459C59.1284 22.5979 58.7552 21.7414 58.2343 21.0765C57.7134 20.4004 57.0254 19.9045 56.1702 19.589C55.3151 19.2734 54.2539 19.1157 52.9867 19.1157H45.5V35.7153H52.9867C54.2539 35.7153 55.3151 35.5575 56.1702 35.242C57.0254 34.9265 57.7134 34.4362 58.2343 33.7714C58.7552 33.0952 59.1284 32.2331 59.3538 31.1851C59.5793 30.1257 59.692 28.8579 59.692 27.3817Z" stroke="#0F9CE6" mask="url(#path-6-outside-1)"/>
<path d="M64.6131 33.0445C64.6131 33.5854 64.7064 34.0418 64.893 34.4137C65.0874 34.7856 65.3556 35.0899 65.6976 35.3265C66.0397 35.5632 66.444 35.7378 66.9104 35.8505C67.3847 35.952 67.9016 36.0027 68.4614 36.0027C69.1455 36.0027 69.7519 35.9351 70.2806 35.7998C70.8092 35.6533 71.2718 35.473 71.6683 35.2589C72.0648 35.0448 72.3991 34.8138 72.6712 34.5658C72.9433 34.3066 73.1687 34.0587 73.3475 33.8221V30.4244C72.5701 30.2666 71.7655 30.1201 70.9336 29.9849C70.1018 29.8384 69.2621 29.7651 68.4148 29.7651C67.8161 29.7651 67.2797 29.8158 66.8055 29.9173C66.339 30.0187 65.9425 30.1934 65.616 30.4413C65.2895 30.6892 65.0407 31.0273 64.8697 31.4555C64.6986 31.8725 64.6131 32.4021 64.6131 33.0445ZM69.5692 24.5418C68.8229 24.5418 68.1854 24.57 67.6568 24.6263C67.1281 24.6827 66.6733 24.7559 66.2924 24.8461C65.9192 24.9362 65.6043 25.032 65.3478 25.1335C65.0912 25.2349 64.8658 25.3363 64.6714 25.4377C64.5781 25.4377 64.4926 25.3701 64.4149 25.2349C64.3371 25.0996 64.2983 24.9531 64.2983 24.7954C64.2983 24.6489 64.3449 24.5418 64.4382 24.4742C64.5004 24.4291 64.6442 24.3559 64.8697 24.2544C65.1029 24.153 65.4255 24.0516 65.8376 23.9502C66.2574 23.8375 66.7744 23.7417 67.3885 23.6628C68.0105 23.5839 68.7413 23.5445 69.5809 23.5445C69.9774 23.5445 70.37 23.5839 70.7587 23.6628C71.1474 23.7304 71.5128 23.86 71.8549 24.0516C72.2047 24.2432 72.5273 24.508 72.8228 24.8461C73.126 25.1842 73.3825 25.6237 73.5924 26.1646C73.8101 26.6942 73.9811 27.3422 74.1055 28.1085C74.2299 28.8636 74.2921 29.7539 74.2921 30.7794V35.6477C74.2921 35.7829 74.2882 35.9181 74.2805 36.0534C74.2727 36.1886 74.2494 36.3182 74.2105 36.4422C74.1794 36.5549 74.1327 36.6507 74.0705 36.7295C74.0084 36.7972 73.9228 36.831 73.814 36.831C73.6352 36.831 73.5108 36.7126 73.4408 36.476C73.3786 36.2393 73.3475 35.9407 73.3475 35.5801V34.4137C73.1921 34.6954 72.9899 34.9884 72.7411 35.2927C72.4924 35.597 72.1775 35.8787 71.7966 36.1379C71.4156 36.3858 70.9608 36.5943 70.4322 36.7633C69.9035 36.9211 69.2777 37 68.5547 37C67.8783 37 67.2408 36.9268 66.6422 36.7802C66.0514 36.6337 65.5344 36.4027 65.0912 36.0872C64.6559 35.7716 64.3099 35.366 64.0534 34.8701C63.8046 34.363 63.6802 33.7544 63.6802 33.0445C63.6802 32.2218 63.7968 31.54 64.0301 30.9991C64.2711 30.4469 64.6015 30.0074 65.0213 29.6806C65.4411 29.3425 65.9309 29.1059 66.4906 28.9706C67.0581 28.8354 67.6684 28.7678 68.3215 28.7678C68.8112 28.7678 69.301 28.796 69.7908 28.8523C70.2884 28.8974 70.7587 28.9706 71.2018 29.0721C71.645 29.1622 72.0492 29.2805 72.4146 29.427C72.7878 29.5623 73.0988 29.7257 73.3475 29.9173C73.3475 28.7678 73.2426 27.8437 73.0327 27.145C72.8228 26.4463 72.5429 25.9054 72.1931 25.5222C71.8432 25.1278 71.4389 24.8686 70.9803 24.7447C70.5294 24.6094 70.059 24.5418 69.5692 24.5418Z" stroke="#0F9CE6" mask="url(#path-6-outside-1)"/>
<path d="M87.5861 33.298C87.5861 32.7008 87.4384 32.2387 87.143 31.9119C86.8554 31.5851 86.4705 31.3485 85.9885 31.202C85.5143 31.0442 84.9701 30.9484 84.3559 30.9146C83.7495 30.8695 83.1276 30.8357 82.4901 30.8132C81.8604 30.7794 81.2384 30.7286 80.6243 30.661C80.0179 30.5821 79.4737 30.43 78.9917 30.2046C78.5174 29.968 78.1326 29.6355 77.8372 29.2073C77.5495 28.7678 77.4057 28.1705 77.4057 27.4155C77.4057 26.6379 77.5495 26.0012 77.8372 25.5053C78.1326 25.0095 78.5174 24.6151 78.9917 24.3221C79.4659 24.0291 80.0023 23.8262 80.6009 23.7135C81.1996 23.6008 81.8099 23.5445 82.4318 23.5445C83.4502 23.5445 84.3987 23.6684 85.2772 23.9164C86.1557 24.153 86.972 24.5587 87.7261 25.1335C87.8038 25.1898 87.8544 25.263 87.8777 25.3532C87.9088 25.4321 87.9282 25.5166 87.936 25.6068C87.936 25.7533 87.9049 25.8829 87.8427 25.9956C87.7805 26.1082 87.7105 26.1646 87.6328 26.1646C87.5861 26.1646 87.5551 26.1533 87.5395 26.1308C86.8787 25.6462 86.1285 25.263 85.2888 24.9813C84.457 24.6883 83.5202 24.5418 82.4784 24.5418C81.9498 24.5418 81.4367 24.5925 80.9391 24.694C80.4416 24.7841 79.9984 24.9419 79.6097 25.1673C79.2288 25.3814 78.9217 25.6744 78.6885 26.0463C78.4552 26.4069 78.3386 26.8633 78.3386 27.4155C78.3386 27.9789 78.4825 28.4128 78.7701 28.7171C79.0655 29.0214 79.4504 29.2467 79.9246 29.3932C80.4066 29.5285 80.9508 29.613 81.5572 29.6468C82.1714 29.6806 82.7933 29.7144 83.423 29.7482C84.0605 29.782 84.6825 29.844 85.2888 29.9342C85.903 30.013 86.4472 30.1765 86.9214 30.4244C87.4035 30.661 87.7883 31.0104 88.0759 31.4724C88.3714 31.9232 88.5191 32.5317 88.5191 33.298C88.5191 33.9855 88.3714 34.5658 88.0759 35.0391C87.7805 35.5125 87.3879 35.8956 86.8981 36.1886C86.4083 36.4703 85.8408 36.6788 85.1956 36.8141C84.5581 36.938 83.8972 37 83.2131 37C82.7933 37 82.3385 36.9831 81.8487 36.9493C81.3667 36.9268 80.8808 36.8648 80.391 36.7633C79.909 36.6507 79.4426 36.4872 78.9917 36.2731C78.5485 36.0477 78.1598 35.7435 77.8255 35.3603C77.7167 35.2364 77.6623 35.0899 77.6623 34.9208C77.6623 34.7743 77.6895 34.6504 77.7439 34.5489C77.8061 34.4362 77.8799 34.3799 77.9655 34.3799C78.0277 34.3799 78.0743 34.4024 78.1054 34.4475C78.4319 34.7743 78.7818 35.0391 79.1549 35.242C79.5359 35.4448 79.9362 35.6026 80.3561 35.7153C80.7759 35.828 81.2151 35.9069 81.6738 35.952C82.1325 35.9858 82.6067 36.0027 83.0965 36.0027C83.6796 36.0027 84.2393 35.9632 84.7757 35.8843C85.3199 35.7942 85.7981 35.6477 86.2101 35.4448C86.6299 35.2307 86.9642 34.9546 87.213 34.6165C87.4618 34.2672 87.5861 33.8277 87.5861 33.298Z" stroke="#0F9CE6" mask="url(#path-6-outside-1)"/>
<path d="M102.058 35.6139C102.058 35.7604 102.05 35.9069 102.035 36.0534C102.027 36.1999 102.007 36.3295 101.976 36.4422C101.945 36.5549 101.899 36.6507 101.836 36.7295C101.782 36.7972 101.708 36.831 101.615 36.831C101.498 36.831 101.409 36.7972 101.347 36.7295C101.284 36.6507 101.234 36.5549 101.195 36.4422C101.164 36.3295 101.145 36.1999 101.137 36.0534C101.129 35.9069 101.125 35.7604 101.125 35.6139V29.7651C101.125 28.8861 101.078 28.1198 100.985 27.4662C100.892 26.8126 100.713 26.2716 100.449 25.8434C100.192 25.4039 99.8307 25.0771 99.3642 24.863C98.8977 24.6489 98.2913 24.5418 97.545 24.5418C97.0941 24.5418 96.6082 24.5982 96.0873 24.7109C95.5665 24.8123 95.0689 24.9982 94.5947 25.2687C94.1282 25.5279 93.7123 25.8772 93.3469 26.3167C92.9815 26.7562 92.7288 27.3084 92.5889 27.9733V35.6139C92.5889 35.7604 92.5811 35.9069 92.5656 36.0534C92.5578 36.1999 92.5384 36.3295 92.5073 36.4422C92.4762 36.5549 92.4295 36.6507 92.3673 36.7295C92.3129 36.7972 92.2391 36.831 92.1458 36.831C92.0369 36.831 91.9475 36.7972 91.8776 36.7295C91.8154 36.6507 91.7648 36.5549 91.726 36.4422C91.6949 36.3295 91.6754 36.1999 91.6677 36.0534C91.6599 35.9069 91.656 35.7604 91.656 35.6139V19.1833C91.656 19.048 91.6599 18.9128 91.6677 18.7776C91.6754 18.6311 91.6949 18.5015 91.726 18.3888C91.7648 18.2761 91.8154 18.1859 91.8776 18.1183C91.9475 18.0394 92.0369 18 92.1458 18C92.2391 18 92.3129 18.0338 92.3673 18.1014C92.4295 18.169 92.4762 18.2592 92.5073 18.3719C92.5384 18.4846 92.5578 18.6142 92.5656 18.7607C92.5811 18.8959 92.5889 19.0368 92.5889 19.1833V26.79C92.6744 26.3393 92.8182 25.9448 93.0204 25.6068C93.2303 25.2687 93.4713 24.9813 93.7434 24.7447C94.0233 24.4967 94.3303 24.2995 94.6646 24.153C94.9989 23.9953 95.3332 23.8713 95.6675 23.7811C96.0096 23.691 96.34 23.629 96.6587 23.5952C96.9853 23.5614 97.2807 23.5445 97.545 23.5445C98.3846 23.5445 99.0921 23.6515 99.6674 23.8657C100.243 24.0685 100.705 24.4122 101.055 24.8968C101.413 25.3814 101.669 26.0237 101.825 26.8238C101.98 27.6127 102.058 28.5931 102.058 29.7651V35.6139Z" stroke="#0F9CE6" mask="url(#path-6-outside-1)"/>
<path d="M111.807 23.5445C112.507 23.5445 113.167 23.6515 113.789 23.8657C114.419 24.0685 114.967 24.4235 115.434 24.9306C115.908 25.4377 116.281 26.1139 116.553 26.9591C116.833 27.8043 116.973 28.8636 116.973 30.137C116.973 31.3992 116.856 32.4698 116.623 33.3488C116.398 34.2165 116.063 34.9208 115.62 35.4617C115.185 36.0027 114.645 36.3971 113.999 36.645C113.362 36.8817 112.631 37 111.807 37C111.177 37 110.598 36.9437 110.069 36.831C109.541 36.7183 109.059 36.5774 108.623 36.4084C108.196 36.2281 107.811 36.0308 107.469 35.8167C107.127 35.6026 106.824 35.3941 106.559 35.1913V35.597C106.559 35.766 106.555 35.9238 106.548 36.0703C106.54 36.2168 106.52 36.3464 106.489 36.4591C106.458 36.5718 106.412 36.6619 106.349 36.7295C106.287 36.7972 106.198 36.831 106.081 36.831C105.965 36.831 105.875 36.7972 105.813 36.7295C105.759 36.6619 105.716 36.5718 105.685 36.4591C105.654 36.3464 105.634 36.2168 105.626 36.0703C105.626 35.9238 105.626 35.766 105.626 35.597V18.8283C105.626 18.4677 105.677 18.2423 105.778 18.1521C105.887 18.0507 106 18 106.116 18C106.233 18 106.334 18.0507 106.419 18.1521C106.513 18.2423 106.559 18.4677 106.559 18.8283V26.9084C106.645 26.4351 106.796 26.0237 107.014 25.6744C107.232 25.3138 107.488 25.0095 107.784 24.7616C108.087 24.5136 108.417 24.3108 108.775 24.153C109.133 23.9953 109.49 23.8713 109.848 23.7811C110.213 23.691 110.563 23.629 110.897 23.5952C111.239 23.5614 111.543 23.5445 111.807 23.5445ZM111.807 24.5418C111.34 24.5531 110.831 24.6094 110.279 24.7109C109.727 24.801 109.199 24.97 108.693 25.218C108.188 25.4659 107.741 25.8096 107.352 26.2491C106.964 26.6886 106.699 27.2633 106.559 27.9733V34.4644C106.894 34.6447 107.251 34.8307 107.632 35.0222C108.021 35.2026 108.433 35.366 108.868 35.5125C109.304 35.659 109.766 35.7773 110.256 35.8674C110.746 35.9576 111.263 36.0027 111.807 36.0027C112.553 36.0027 113.191 35.89 113.719 35.6646C114.256 35.4392 114.695 35.0899 115.037 34.6165C115.387 34.132 115.64 33.5234 115.795 32.7909C115.958 32.0472 116.04 31.1625 116.04 30.137C116.04 29.0777 115.927 28.1874 115.702 27.4662C115.484 26.745 115.185 26.1702 114.804 25.742C114.423 25.3138 113.972 25.0095 113.451 24.8292C112.938 24.6376 112.39 24.5418 111.807 24.5418Z" stroke="#0F9CE6" mask="url(#path-6-outside-1)"/>
<path d="M125.649 37C124.576 37 123.671 36.8479 122.932 36.5436C122.193 36.2281 121.595 35.7829 121.136 35.2082C120.685 34.6335 120.359 33.9348 120.157 33.1121C119.954 32.2894 119.853 31.3597 119.853 30.323C119.853 29.1284 119.966 28.1085 120.192 27.2633C120.425 26.4069 120.778 25.7026 121.253 25.1504C121.735 24.5982 122.337 24.1925 123.06 23.9333C123.791 23.6741 124.654 23.5445 125.649 23.5445C126.644 23.5445 127.503 23.6741 128.226 23.9333C128.957 24.1925 129.56 24.5982 130.034 25.1504C130.516 25.7026 130.87 26.4069 131.095 27.2633C131.328 28.1085 131.445 29.1284 131.445 30.323C131.445 31.3597 131.344 32.2894 131.142 33.1121C130.939 33.9348 130.609 34.6335 130.15 35.2082C129.699 35.7829 129.105 36.2281 128.366 36.5436C127.628 36.8479 126.722 37 125.649 37ZM125.649 36.0027C126.357 36.0027 126.967 35.9294 127.48 35.7829C127.993 35.6251 128.428 35.411 128.786 35.1406C129.151 34.8701 129.443 34.5546 129.661 34.194C129.886 33.8333 130.061 33.4445 130.185 33.0276C130.318 32.5993 130.403 32.1598 130.442 31.7091C130.489 31.247 130.512 30.785 130.512 30.323C130.512 29.2749 130.419 28.3846 130.232 27.6521C130.045 26.9196 129.754 26.3224 129.357 25.8603C128.961 25.3983 128.456 25.0658 127.841 24.863C127.227 24.6489 126.496 24.5418 125.649 24.5418C124.794 24.5418 124.059 24.6489 123.445 24.863C122.839 25.0658 122.337 25.3983 121.941 25.8603C121.544 26.3224 121.253 26.9196 121.066 27.6521C120.88 28.3846 120.786 29.2749 120.786 30.323C120.786 30.785 120.806 31.247 120.845 31.7091C120.891 32.1598 120.977 32.5993 121.101 33.0276C121.233 33.4445 121.408 33.8333 121.626 34.194C121.851 34.5546 122.143 34.8701 122.5 35.1406C122.866 35.411 123.305 35.6251 123.818 35.7829C124.331 35.9294 124.942 36.0027 125.649 36.0027Z" stroke="#0F9CE6" mask="url(#path-6-outside-1)"/>
<path d="M135.375 33.0445C135.375 33.5854 135.468 34.0418 135.655 34.4137C135.849 34.7856 136.117 35.0899 136.459 35.3265C136.801 35.5632 137.206 35.7378 137.672 35.8505C138.146 35.952 138.663 36.0027 139.223 36.0027C139.907 36.0027 140.514 35.9351 141.042 35.7998C141.571 35.6533 142.033 35.473 142.43 35.2589C142.826 35.0448 143.161 34.8138 143.433 34.5658C143.705 34.3066 143.93 34.0587 144.109 33.8221V30.4244C143.332 30.2666 142.527 30.1201 141.695 29.9849C140.863 29.8384 140.024 29.7651 139.176 29.7651C138.578 29.7651 138.041 29.8158 137.567 29.9173C137.101 30.0187 136.704 30.1934 136.378 30.4413C136.051 30.6892 135.802 31.0273 135.631 31.4555C135.46 31.8725 135.375 32.4021 135.375 33.0445ZM140.331 24.5418C139.584 24.5418 138.947 24.57 138.418 24.6263C137.89 24.6827 137.435 24.7559 137.054 24.8461C136.681 24.9362 136.366 25.032 136.109 25.1335C135.853 25.2349 135.627 25.3363 135.433 25.4377C135.34 25.4377 135.254 25.3701 135.176 25.2349C135.099 25.0996 135.06 24.9531 135.06 24.7954C135.06 24.6489 135.106 24.5418 135.2 24.4742C135.262 24.4291 135.406 24.3559 135.631 24.2544C135.864 24.153 136.187 24.0516 136.599 23.9502C137.019 23.8375 137.536 23.7417 138.15 23.6628C138.772 23.5839 139.503 23.5445 140.342 23.5445C140.739 23.5445 141.132 23.5839 141.52 23.6628C141.909 23.7304 142.274 23.86 142.616 24.0516C142.966 24.2432 143.289 24.508 143.584 24.8461C143.888 25.1842 144.144 25.6237 144.354 26.1646C144.572 26.6942 144.743 27.3422 144.867 28.1085C144.992 28.8636 145.054 29.7539 145.054 30.7794V35.6477C145.054 35.7829 145.05 35.9181 145.042 36.0534C145.034 36.1886 145.011 36.3182 144.972 36.4422C144.941 36.5549 144.894 36.6507 144.832 36.7295C144.77 36.7972 144.684 36.831 144.576 36.831C144.397 36.831 144.272 36.7126 144.202 36.476C144.14 36.2393 144.109 35.9407 144.109 35.5801V34.4137C143.954 34.6954 143.752 34.9884 143.503 35.2927C143.254 35.597 142.939 35.8787 142.558 36.1379C142.177 36.3858 141.722 36.5943 141.194 36.7633C140.665 36.9211 140.039 37 139.316 37C138.64 37 138.002 36.9268 137.404 36.7802C136.813 36.6337 136.296 36.4027 135.853 36.0872C135.417 35.7716 135.072 35.366 134.815 34.8701C134.566 34.363 134.442 33.7544 134.442 33.0445C134.442 32.2218 134.558 31.54 134.792 30.9991C135.033 30.4469 135.363 30.0074 135.783 29.6806C136.203 29.3425 136.692 29.1059 137.252 28.9706C137.82 28.8354 138.43 28.7678 139.083 28.7678C139.573 28.7678 140.063 28.796 140.552 28.8523C141.05 28.8974 141.52 28.9706 141.963 29.0721C142.407 29.1622 142.811 29.2805 143.176 29.427C143.549 29.5623 143.86 29.7257 144.109 29.9173C144.109 28.7678 144.004 27.8437 143.794 27.145C143.584 26.4463 143.304 25.9054 142.955 25.5222C142.605 25.1278 142.201 24.8686 141.742 24.7447C141.291 24.6094 140.821 24.5418 140.331 24.5418Z" stroke="#0F9CE6" mask="url(#path-6-outside-1)"/>
<path d="M155.502 23.9502C155.588 23.984 155.65 24.0516 155.689 24.153C155.728 24.2432 155.747 24.3446 155.747 24.4573C155.747 24.6038 155.712 24.739 155.642 24.863C155.58 24.987 155.483 25.0489 155.351 25.0489C155.312 25.0489 155.289 25.0489 155.281 25.0489C155.273 25.0377 155.25 25.0264 155.211 25.0151C154.908 24.8912 154.616 24.7954 154.336 24.7278C154.064 24.6601 153.765 24.6263 153.438 24.6263C152.98 24.6263 152.54 24.694 152.121 24.8292C151.708 24.9531 151.331 25.1504 150.989 25.4208C150.655 25.68 150.364 26.0181 150.115 26.4351C149.866 26.8407 149.679 27.3197 149.555 27.8719V35.6477C149.555 35.9407 149.528 36.2112 149.473 36.4591C149.419 36.707 149.295 36.831 149.1 36.831C148.991 36.831 148.902 36.7972 148.832 36.7295C148.77 36.6619 148.723 36.5718 148.692 36.4591C148.661 36.3464 148.642 36.2224 148.634 36.0872C148.626 35.9407 148.622 35.7942 148.622 35.6477V24.8292C148.622 24.57 148.653 24.3502 148.715 24.1699C148.778 23.9784 148.921 23.8826 149.147 23.8826C149.318 23.8826 149.427 23.9727 149.473 24.153C149.528 24.3333 149.555 24.5587 149.555 24.8292V26.79C149.679 26.1026 149.893 25.5448 150.196 25.1165C150.507 24.6883 150.849 24.3615 151.223 24.1361C151.604 23.8995 151.992 23.7417 152.389 23.6628C152.785 23.5839 153.135 23.5445 153.438 23.5445C153.734 23.5445 153.986 23.5614 154.196 23.5952C154.414 23.6177 154.601 23.6515 154.756 23.6966C154.911 23.7304 155.048 23.7699 155.164 23.8149C155.281 23.86 155.394 23.9051 155.502 23.9502Z" stroke="#0F9CE6" mask="url(#path-6-outside-1)"/>
<path d="M162.453 37C161.753 37 161.088 36.8986 160.458 36.6957C159.837 36.4816 159.288 36.121 158.814 35.6139C158.348 35.1068 157.975 34.4306 157.695 33.5854C157.423 32.7402 157.287 31.6809 157.287 30.4075C157.287 29.1453 157.399 28.0804 157.625 27.2126C157.858 26.3336 158.192 25.6237 158.628 25.0827C159.071 24.5418 159.611 24.153 160.249 23.9164C160.894 23.6684 161.628 23.5445 162.453 23.5445C163.277 23.5445 163.984 23.6177 164.575 23.7642C165.166 23.8995 165.663 24.0741 166.068 24.2883C166.48 24.5024 166.814 24.739 167.07 24.9982C167.335 25.2461 167.545 25.4772 167.7 25.6913V19.2002C167.7 19.0537 167.7 18.9072 167.7 18.7607C167.708 18.6142 167.727 18.4846 167.759 18.3719C167.79 18.2592 167.832 18.169 167.887 18.1014C167.949 18.0338 168.038 18 168.155 18C168.272 18 168.361 18.0338 168.423 18.1014C168.485 18.1578 168.532 18.2367 168.563 18.3381C168.594 18.4395 168.614 18.5635 168.621 18.71C168.629 18.8452 168.633 18.9973 168.633 19.1664V35.9181C168.633 36.2788 168.583 36.5211 168.482 36.645C168.388 36.769 168.287 36.831 168.178 36.831C168.046 36.831 167.933 36.7746 167.84 36.6619C167.747 36.5492 167.7 36.3126 167.7 35.952V33.6023C167.615 34.0869 167.463 34.5095 167.245 34.8701C167.028 35.2195 166.767 35.5181 166.464 35.766C166.169 36.0139 165.842 36.2224 165.485 36.3915C165.127 36.5492 164.765 36.6732 164.4 36.7633C164.042 36.8535 163.693 36.9155 163.35 36.9493C163.016 36.9831 162.717 37 162.453 37ZM162.453 36.0027C162.919 35.9914 163.428 35.9407 163.98 35.8505C164.532 35.7491 165.061 35.5744 165.566 35.3265C166.071 35.0786 166.519 34.7349 166.907 34.2954C167.296 33.8559 167.56 33.2811 167.7 32.5712V26.4858C167.521 26.2829 167.292 26.0688 167.012 25.8434C166.74 25.618 166.394 25.4095 165.974 25.218C165.562 25.0151 165.065 24.8517 164.482 24.7278C163.906 24.6038 163.23 24.5418 162.453 24.5418C161.706 24.5418 161.065 24.6545 160.528 24.8799C160 25.1053 159.561 25.4603 159.211 25.9448C158.869 26.4181 158.616 27.0267 158.453 27.7705C158.297 28.503 158.219 29.382 158.219 30.4075C158.219 31.4781 158.328 32.374 158.546 33.0952C158.771 33.8052 159.075 34.3743 159.456 34.8025C159.837 35.2307 160.284 35.5406 160.797 35.7322C161.318 35.9125 161.869 36.0027 162.453 36.0027Z" stroke="#0F9CE6" mask="url(#path-6-outside-1)"/>
<path d="M182.067 33.298C182.067 32.7008 181.919 32.2387 181.624 31.9119C181.336 31.5851 180.951 31.3485 180.469 31.202C179.995 31.0442 179.451 30.9484 178.837 30.9146C178.23 30.8695 177.609 30.8357 176.971 30.8132C176.341 30.7794 175.719 30.7286 175.105 30.661C174.499 30.5821 173.955 30.43 173.473 30.2046C172.998 29.968 172.614 29.6355 172.318 29.2073C172.03 28.7678 171.887 28.1705 171.887 27.4155C171.887 26.6379 172.03 26.0012 172.318 25.5053C172.614 25.0095 172.998 24.6151 173.473 24.3221C173.947 24.0291 174.483 23.8262 175.082 23.7135C175.681 23.6008 176.291 23.5445 176.913 23.5445C177.931 23.5445 178.88 23.6684 179.758 23.9164C180.637 24.153 181.453 24.5587 182.207 25.1335C182.285 25.1898 182.335 25.263 182.359 25.3532C182.39 25.4321 182.409 25.5166 182.417 25.6068C182.417 25.7533 182.386 25.8829 182.324 25.9956C182.261 26.1082 182.191 26.1646 182.114 26.1646C182.067 26.1646 182.036 26.1533 182.02 26.1308C181.36 25.6462 180.609 25.263 179.77 24.9813C178.938 24.6883 178.001 24.5418 176.959 24.5418C176.431 24.5418 175.918 24.5925 175.42 24.694C174.923 24.7841 174.479 24.9419 174.091 25.1673C173.71 25.3814 173.403 25.6744 173.169 26.0463C172.936 26.4069 172.82 26.8633 172.82 27.4155C172.82 27.9789 172.963 28.4128 173.251 28.7171C173.546 29.0214 173.931 29.2467 174.406 29.3932C174.888 29.5285 175.432 29.613 176.038 29.6468C176.652 29.6806 177.274 29.7144 177.904 29.7482C178.541 29.782 179.163 29.844 179.77 29.9342C180.384 30.013 180.928 30.1765 181.402 30.4244C181.884 30.661 182.269 31.0104 182.557 31.4724C182.852 31.9232 183 32.5317 183 33.298C183 33.9855 182.852 34.5658 182.557 35.0391C182.261 35.5125 181.869 35.8956 181.379 36.1886C180.889 36.4703 180.322 36.6788 179.676 36.8141C179.039 36.938 178.378 37 177.694 37C177.274 37 176.819 36.9831 176.33 36.9493C175.848 36.9268 175.362 36.8648 174.872 36.7633C174.39 36.6507 173.924 36.4872 173.473 36.2731C173.029 36.0477 172.641 35.7435 172.306 35.3603C172.198 35.2364 172.143 35.0899 172.143 34.9208C172.143 34.7743 172.17 34.6504 172.225 34.5489C172.287 34.4362 172.361 34.3799 172.446 34.3799C172.509 34.3799 172.555 34.4024 172.586 34.4475C172.913 34.7743 173.263 35.0391 173.636 35.242C174.017 35.4448 174.417 35.6026 174.837 35.7153C175.257 35.828 175.696 35.9069 176.155 35.952C176.613 35.9858 177.088 36.0027 177.577 36.0027C178.161 36.0027 178.72 35.9632 179.257 35.8843C179.801 35.7942 180.279 35.6477 180.691 35.4448C181.111 35.2307 181.445 34.9546 181.694 34.6165C181.943 34.2672 182.067 33.8277 182.067 33.298Z" stroke="#0F9CE6" mask="url(#path-6-outside-1)"/>
<defs>
<clipPath id="clip0">
<rect width="22.8175" height="22.5388" fill="white" transform="translate(187 18.031)"/>
</clipPath>
<clipPath id="clip1">
<rect width="18.254" height="18.0311" fill="white" transform="translate(211.947 18.031)"/>
</clipPath>
</defs>
</svg>
