<svg width="182" height="225" viewBox="0 0 182 225" fill="none" xmlns="http://www.w3.org/2000/svg">
<rect x="5" y="5" width="172" height="215" rx="10" fill="white" stroke="black" stroke-width="10"/>
<path d="M3 42.5H178.5" stroke="black" stroke-width="10"/>
<rect x="72" y="20" width="4" height="20" rx="2" fill="white" stroke="black" stroke-width="4"/>
<rect x="93.5" y="14.5" width="43" height="18" rx="2.5" fill="white" stroke="black" stroke-width="5"/>
<circle cx="22" cy="19" r="4" fill="black"/>
<circle cx="48" cy="31" r="4" fill="black"/>
<circle cx="35" cy="31" r="4" fill="black"/>
<circle cx="22" cy="31" r="4" fill="black"/>
<circle cx="48" cy="19" r="4" fill="black"/>
<circle cx="35" cy="19" r="4" fill="black"/>
<circle cx="92" cy="137" r="65" fill="white" stroke="black" stroke-width="10"/>
<circle cx="91" cy="136" r="45" fill="white" stroke="black" stroke-width="10"/>
<rect x="91.9317" y="140.51" width="4" height="39.0275" rx="2" transform="rotate(40.5 91.9317 140.51)" fill="white" stroke="black" stroke-width="4"/>
<rect x="72.8919" y="143.507" width="4" height="26.2873" rx="2" transform="rotate(40.5 72.8919 143.507)" fill="white" stroke="black" stroke-width="4"/>
<rect x="105.346" y="127.572" width="4" height="6.96971" rx="2" transform="rotate(40.5 105.346 127.572)" fill="white" stroke="black" stroke-width="4"/>
</svg>
